<svg xmlns="http://www.w3.org/2000/svg" width="768" height="481" viewBox="0 0 768 481" role="img" aria-labelledby="title description"><title id="title">Clean heading suggestions and internal links</title><desc id="description">The production LinkSuggestDecorator wraps a native heading-suggestion shell. Below it, the actual reading processor transforms internal heading links while retaining their original targets. A real CodeMirror editor supplies the typed wikilink prefix.</desc><defs><clipPath id="clip-1"><rect x="57" y="57" width="654" height="52" rx="0" fill="white" /></clipPath><clipPath id="clip-2"><rect x="57" y="251" width="654" height="172.06" rx="0" fill="white" /></clipPath><clipPath id="clip-3"><rect x="82" y="118" width="388" height="116" rx="0" fill="white" /></clipPath><clipPath id="clip-4"><rect x="81" y="117" width="390" height="118" rx="8" fill="white" /></clipPath></defs><rect x="0" y="0" width="768" height="481" rx="12" fill="rgb(28, 28, 28)" /><rect x="24" y="24" width="720" height="432.06" rx="12" fill="rgb(28, 28, 28)" /><rect x="24.5" y="24.5" width="719" height="431.06" rx="11.5" fill="none" stroke="rgb(51, 51, 51)" stroke-width="1"/><g clip-path="url(#clip-1)"><text x="57" y="89" fill="rgb(218, 218, 218)" font-family="monospace" font-size="20px" font-weight="400" font-style="normal" textLength="36.02" lengthAdjust="spacingAndGlyphs" xml:space="preserve">[[#</text></g><g clip-path="url(#clip-2)"><text x="89" y="306" fill="rgb(218, 218, 218)" font-family="&quot;??&quot;, &quot;??&quot;, ui-sans-serif, -apple-system, &quot;system-ui&quot;, system-ui, &quot;Segoe UI&quot;, &quot;Google Sans Flex&quot;, Roboto, &quot;Inter Variable&quot;, Inter, &quot;Apple Color Emoji&quot;, &quot;Segoe UI Emoji&quot;, &quot;Segoe UI Symbol&quot;, sans-serif" font-size="23.392px" font-weight="680" font-style="normal" textLength="225.53" lengthAdjust="spacingAndGlyphs" xml:space="preserve">Links in Reading view</text><g xmlns="http://www.w3.org/2000/svg" fill="none" stroke="rgb(83, 223, 221)" stroke-width="1.75px" stroke-linecap="round" stroke-linejoin="round" fill-rule="nonzero" clip-rule="nonzero" opacity="1" transform="matrix(0.6666666666666666 0 0 0.6666666666666666 89 331.0625)"><path d="M12 3q1 4 4 6.5t3 5.5a1 1 0 0 1-14 0 5 5 0 0 1 1-3 1 1 0 0 0 5 0c0-2-1.5-3-1.5-5q0-2 2.5-4" fill="none" stroke="rgb(83, 223, 221)" stroke-width="1.75px" stroke-linecap="round" stroke-linejoin="round" fill-rule="nonzero" clip-rule="nonzero" opacity="1"/></g><text x="110.59" y="345.06" fill="rgb(166, 138, 249)" font-family="&quot;??&quot;, &quot;??&quot;, ui-sans-serif, -apple-system, &quot;system-ui&quot;, system-ui, &quot;Segoe UI&quot;, &quot;Google Sans Flex&quot;, Roboto, &quot;Inter Variable&quot;, Inter, &quot;Apple Color Emoji&quot;, &quot;Segoe UI Emoji&quot;, &quot;Segoe UI Symbol&quot;, sans-serif" font-size="16px" font-weight="400" font-style="normal" textLength="160.05" lengthAdjust="spacingAndGlyphs" xml:space="preserve">Start with a small pilot</text><g xmlns="http://www.w3.org/2000/svg" fill="none" stroke="rgb(233, 151, 63)" stroke-width="1.75px" stroke-linecap="round" stroke-linejoin="round" fill-rule="nonzero" clip-rule="nonzero" opacity="1" transform="matrix(0.6666666666666666 0 0 0.6666666666666666 89 371.0625)"><path d="m21.73 18-8-14a2 2 0 0 0-3.48 0l-8 14A2 2 0 0 0 4 21h16a2 2 0 0 0 1.73-3" fill="none" stroke="rgb(233, 151, 63)" stroke-width="1.75px" stroke-linecap="round" stroke-linejoin="round" fill-rule="nonzero" clip-rule="nonzero" opacity="1"/><path d="M12 9v4" fill="none" stroke="rgb(233, 151, 63)" stroke-width="1.75px" stroke-linecap="round" stroke-linejoin="round" fill-rule="nonzero" clip-rule="nonzero" opacity="1"/><path d="M12 17h.01" fill="none" stroke="rgb(233, 151, 63)" stroke-width="1.75px" stroke-linecap="round" stroke-linejoin="round" fill-rule="nonzero" clip-rule="nonzero" opacity="1"/></g><text x="110.59" y="385.06" fill="rgb(166, 138, 249)" font-family="&quot;??&quot;, &quot;??&quot;, ui-sans-serif, -apple-system, &quot;system-ui&quot;, system-ui, &quot;Segoe UI&quot;, &quot;Google Sans Flex&quot;, Roboto, &quot;Inter Variable&quot;, Inter, &quot;Apple Color Emoji&quot;, &quot;Segoe UI Emoji&quot;, &quot;Segoe UI Symbol&quot;, sans-serif" font-size="16px" font-weight="400" font-style="normal" textLength="180.08" lengthAdjust="spacingAndGlyphs" xml:space="preserve">Check the dependencies</text></g><rect x="81" y="117" width="390" height="118" rx="8" fill="rgb(28, 28, 28)" /><rect x="81.5" y="117.5" width="389" height="117" rx="7.5" fill="none" stroke="rgb(51, 51, 51)" stroke-width="1"/><g clip-path="url(#clip-4)"><g clip-path="url(#clip-3)"><rect x="88" y="124" width="376" height="51" rx="4" fill="rgba(255, 254.99, 255, 0.07)" /><g xmlns="http://www.w3.org/2000/svg" fill="none" stroke="rgb(83, 223, 221)" stroke-width="1.75px" stroke-linecap="round" stroke-linejoin="round" fill-rule="nonzero" clip-rule="nonzero" opacity="1" transform="matrix(0.625 0 0 0.625 100 131.875)"><path d="M12 3q1 4 4 6.5t3 5.5a1 1 0 0 1-14 0 5 5 0 0 1 1-3 1 1 0 0 0 5 0c0-2-1.5-3-1.5-5q0-2 2.5-4" fill="none" stroke="rgb(83, 223, 221)" stroke-width="1.75px" stroke-linecap="round" stroke-linejoin="round" fill-rule="nonzero" clip-rule="nonzero" opacity="1"/></g><text x="120.25" y="145" fill="rgb(218, 218, 218)" font-family="&quot;??&quot;, &quot;??&quot;, &quot;??&quot;, ui-sans-serif, -apple-system, &quot;system-ui&quot;, system-ui, &quot;Segoe UI&quot;, &quot;Google Sans Flex&quot;, Roboto, &quot;Inter Variable&quot;, Inter, &quot;Apple Color Emoji&quot;, &quot;Segoe UI Emoji&quot;, &quot;Segoe UI Symbol&quot;, sans-serif" font-size="15px" font-weight="400" font-style="normal" textLength="151.45" lengthAdjust="spacingAndGlyphs" xml:space="preserve">Start with a small pilot</text><text x="100" y="164.5" fill="rgb(218, 218, 218)" font-family="&quot;??&quot;, &quot;??&quot;, &quot;??&quot;, ui-sans-serif, -apple-system, &quot;system-ui&quot;, system-ui, &quot;Segoe UI&quot;, &quot;Google Sans Flex&quot;, Roboto, &quot;Inter Variable&quot;, Inter, &quot;Apple Color Emoji&quot;, &quot;Segoe UI Emoji&quot;, &quot;Segoe UI Symbol&quot;, sans-serif" font-size="15px" font-weight="400" font-style="normal" textLength="83.14" lengthAdjust="spacingAndGlyphs" xml:space="preserve">Launch plan</text><g xmlns="http://www.w3.org/2000/svg" fill="none" stroke="rgb(233, 151, 63)" stroke-width="1.75px" stroke-linecap="round" stroke-linejoin="round" fill-rule="nonzero" clip-rule="nonzero" opacity="1" transform="matrix(0.625 0 0 0.625 100 183.875)"><path d="m21.73 18-8-14a2 2 0 0 0-3.48 0l-8 14A2 2 0 0 0 4 21h16a2 2 0 0 0 1.73-3" fill="none" stroke="rgb(233, 151, 63)" stroke-width="1.75px" stroke-linecap="round" stroke-linejoin="round" fill-rule="nonzero" clip-rule="nonzero" opacity="1"/><path d="M12 9v4" fill="none" stroke="rgb(233, 151, 63)" stroke-width="1.75px" stroke-linecap="round" stroke-linejoin="round" fill-rule="nonzero" clip-rule="nonzero" opacity="1"/><path d="M12 17h.01" fill="none" stroke="rgb(233, 151, 63)" stroke-width="1.75px" stroke-linecap="round" stroke-linejoin="round" fill-rule="nonzero" clip-rule="nonzero" opacity="1"/></g><text x="120.25" y="197" fill="rgb(218, 218, 218)" font-family="&quot;??&quot;, &quot;??&quot;, &quot;??&quot;, ui-sans-serif, -apple-system, &quot;system-ui&quot;, system-ui, &quot;Segoe UI&quot;, &quot;Google Sans Flex&quot;, Roboto, &quot;Inter Variable&quot;, Inter, &quot;Apple Color Emoji&quot;, &quot;Segoe UI Emoji&quot;, &quot;Segoe UI Symbol&quot;, sans-serif" font-size="15px" font-weight="400" font-style="normal" textLength="170.12" lengthAdjust="spacingAndGlyphs" xml:space="preserve">Check the dependencies</text><text x="100" y="216.5" fill="rgb(218, 218, 218)" font-family="&quot;??&quot;, &quot;??&quot;, &quot;??&quot;, ui-sans-serif, -apple-system, &quot;system-ui&quot;, system-ui, &quot;Segoe UI&quot;, &quot;Google Sans Flex&quot;, Roboto, &quot;Inter Variable&quot;, Inter, &quot;Apple Color Emoji&quot;, &quot;Segoe UI Emoji&quot;, &quot;Segoe UI Symbol&quot;, sans-serif" font-size="15px" font-weight="400" font-style="normal" textLength="83.14" lengthAdjust="spacingAndGlyphs" xml:space="preserve">Launch plan</text></g></g></svg>
