<svg xmlns="http://www.w3.org/2000/svg" width="608" height="752" viewBox="0 0 608 752" role="img" aria-labelledby="title description"><title id="title">Manage icon libraries</title><desc id="description">Callout Studio's actual IconLibrariesModal lists the available bundled sources and the downloadable libraries. Catalog counts come from the plugin's bundled indexes; this scene does not download any library or modify a vault.</desc><defs><clipPath id="clip-1"><rect x="41" y="96" width="526" height="50.78" rx="0" fill="white" /></clipPath><clipPath id="clip-2"><rect x="41" y="170.78" width="454" height="19.5" rx="0" fill="white" /></clipPath><clipPath id="clip-3"><rect x="125" y="214.28" width="47.81" height="19.5" rx="0" fill="white" /></clipPath><clipPath id="clip-4"><rect x="125" y="271.38" width="58.19" height="19.5" rx="0" fill="white" /></clipPath><clipPath id="clip-5"><rect x="125" y="328.47" width="39.06" height="19.5" rx="0" fill="white" /></clipPath><clipPath id="clip-6"><rect x="125" y="385.56" width="98.11" height="19.5" rx="0" fill="white" /></clipPath><clipPath id="clip-7"><rect x="125" y="547.16" width="86.89" height="19.5" rx="0" fill="white" /></clipPath><clipPath id="clip-8"><rect x="125" y="604.25" width="63.97" height="19.5" rx="0" fill="white" /></clipPath><clipPath id="clip-9"><rect x="125" y="661.34" width="104.86" height="19.5" rx="0" fill="white" /></clipPath><clipPath id="clip-10"><rect x="125" y="718.44" width="103.44" height="19.5" rx="0" fill="white" /></clipPath><clipPath id="clip-11"><rect x="25" y="80" width="558" height="647" rx="0" fill="white" /></clipPath><clipPath id="clip-12"><rect x="24" y="24" width="560" height="704" rx="12" fill="white" /></clipPath></defs><rect x="0" y="0" width="608" height="752" rx="12" fill="rgb(28, 28, 28)" /><rect x="24" y="24" width="560" height="704" rx="12" fill="rgb(28, 28, 28)" /><rect x="24.5" y="24.5" width="559" height="703" rx="11.5" fill="none" stroke="rgb(85, 85, 85)" stroke-width="1"/><g clip-path="url(#clip-12)"><rect x="25" y="79" width="558" height="1" rx="0" fill="rgb(51, 51, 51)" /><text x="41" y="61" fill="rgb(218, 218, 218)" font-family="&quot;??&quot;, &quot;??&quot;, &quot;??&quot;, ui-sans-serif, -apple-system, &quot;system-ui&quot;, system-ui, &quot;Segoe UI&quot;, &quot;Google Sans Flex&quot;, Roboto, &quot;Inter Variable&quot;, Inter, &quot;Apple Color Emoji&quot;, &quot;Segoe UI Emoji&quot;, &quot;Segoe UI Symbol&quot;, sans-serif" font-size="20px" font-weight="600" font-style="normal" textLength="195.37" lengthAdjust="spacingAndGlyphs" xml:space="preserve">Manage icon libraries</text><g clip-path="url(#clip-11)"><g clip-path="url(#clip-1)"><text x="41" y="112" fill="rgb(179, 179, 179)" font-family="&quot;??&quot;, &quot;??&quot;, &quot;??&quot;, ui-sans-serif, -apple-system, &quot;system-ui&quot;, system-ui, &quot;Segoe UI&quot;, &quot;Google Sans Flex&quot;, Roboto, &quot;Inter Variable&quot;, Inter, &quot;Apple Color Emoji&quot;, &quot;Segoe UI Emoji&quot;, &quot;Segoe UI Symbol&quot;, sans-serif" font-size="12px" font-weight="400" font-style="normal" textLength="315.51" lengthAdjust="spacingAndGlyphs" xml:space="preserve">Drag to change the order of the libraries in Pick an icon.</text><text x="41" y="127.59" fill="rgb(179, 179, 179)" font-family="&quot;??&quot;, &quot;??&quot;, &quot;??&quot;, ui-sans-serif, -apple-system, &quot;system-ui&quot;, system-ui, &quot;Segoe UI&quot;, &quot;Google Sans Flex&quot;, Roboto, &quot;Inter Variable&quot;, Inter, &quot;Apple Color Emoji&quot;, &quot;Segoe UI Emoji&quot;, &quot;Segoe UI Symbol&quot;, sans-serif" font-size="12px" font-weight="400" font-style="normal" textLength="268.13" lengthAdjust="spacingAndGlyphs" xml:space="preserve">Some libraries can be downloaded and deleted.</text><text x="41" y="143.19" fill="rgb(179, 179, 179)" font-family="&quot;??&quot;, &quot;??&quot;, &quot;??&quot;, ui-sans-serif, -apple-system, &quot;system-ui&quot;, system-ui, &quot;Segoe UI&quot;, &quot;Google Sans Flex&quot;, Roboto, &quot;Inter Variable&quot;, Inter, &quot;Apple Color Emoji&quot;, &quot;Segoe UI Emoji&quot;, &quot;Segoe UI Symbol&quot;, sans-serif" font-size="12px" font-weight="400" font-style="normal" textLength="431.89" lengthAdjust="spacingAndGlyphs" xml:space="preserve">Lucide, Emoji and Material come with the plugin, so they can only be hidden.</text></g><g clip-path="url(#clip-2)"><text x="41" y="185.78" fill="rgb(218, 218, 218)" font-family="&quot;??&quot;, &quot;??&quot;, &quot;??&quot;, ui-sans-serif, -apple-system, &quot;system-ui&quot;, system-ui, &quot;Segoe UI&quot;, &quot;Google Sans Flex&quot;, Roboto, &quot;Inter Variable&quot;, Inter, &quot;Apple Color Emoji&quot;, &quot;Segoe UI Emoji&quot;, &quot;Segoe UI Symbol&quot;, sans-serif" font-size="15px" font-weight="600" font-style="normal" textLength="126.06" lengthAdjust="spacingAndGlyphs" xml:space="preserve">Available libraries</text></g><rect x="41" y="206.28" width="526" height="53.09" rx="8" fill="rgb(40, 40, 40)" /><g xmlns="http://www.w3.org/2000/svg" fill="none" stroke="rgb(102, 102, 102)" stroke-width="1.75px" stroke-linecap="round" stroke-linejoin="round" fill-rule="nonzero" clip-rule="nonzero" opacity="1" transform="matrix(0.75 0 0 0.75 60 223.828125)"><circle cx="9" cy="12" r="1" fill="none" stroke="rgb(102, 102, 102)" stroke-width="1.75px" stroke-linecap="round" stroke-linejoin="round" fill-rule="nonzero" clip-rule="nonzero" opacity="1"/><circle cx="9" cy="5" r="1" fill="none" stroke="rgb(102, 102, 102)" stroke-width="1.75px" stroke-linecap="round" stroke-linejoin="round" fill-rule="nonzero" clip-rule="nonzero" opacity="1"/><circle cx="9" cy="19" r="1" fill="none" stroke="rgb(102, 102, 102)" stroke-width="1.75px" stroke-linecap="round" stroke-linejoin="round" fill-rule="nonzero" clip-rule="nonzero" opacity="1"/><circle cx="15" cy="12" r="1" fill="none" stroke="rgb(102, 102, 102)" stroke-width="1.75px" stroke-linecap="round" stroke-linejoin="round" fill-rule="nonzero" clip-rule="nonzero" opacity="1"/><circle cx="15" cy="5" r="1" fill="none" stroke="rgb(102, 102, 102)" stroke-width="1.75px" stroke-linecap="round" stroke-linejoin="round" fill-rule="nonzero" clip-rule="nonzero" opacity="1"/><circle cx="15" cy="19" r="1" fill="none" stroke="rgb(102, 102, 102)" stroke-width="1.75px" stroke-linecap="round" stroke-linejoin="round" fill-rule="nonzero" clip-rule="nonzero" opacity="1"/></g><g xmlns="http://www.w3.org/2000/svg" fill="none" stroke="rgb(179, 179, 179)" stroke-width="1.75px" stroke-linecap="round" stroke-linejoin="round" fill-rule="nonzero" clip-rule="nonzero" opacity="1" transform="matrix(0.6666666666666666 0 0 0.6666666666666666 97 224.828125)"><path d="M12.67 19a2 2 0 0 0 1.416-.588l6.154-6.172a6 6 0 0 0-8.49-8.49L5.586 9.914A2 2 0 0 0 5 11.328V18a1 1 0 0 0 1 1z" fill="none" stroke="rgb(179, 179, 179)" stroke-width="1.75px" stroke-linecap="round" stroke-linejoin="round" fill-rule="nonzero" clip-rule="nonzero" opacity="1"/><path d="M16 8 2 22" fill="none" stroke="rgb(179, 179, 179)" stroke-width="1.75px" stroke-linecap="round" stroke-linejoin="round" fill-rule="nonzero" clip-rule="nonzero" opacity="1"/><path d="M17.5 15H9" fill="none" stroke="rgb(179, 179, 179)" stroke-width="1.75px" stroke-linecap="round" stroke-linejoin="round" fill-rule="nonzero" clip-rule="nonzero" opacity="1"/></g><g clip-path="url(#clip-3)"><text x="125" y="229.28" fill="rgb(218, 218, 218)" font-family="&quot;??&quot;, &quot;??&quot;, &quot;??&quot;, ui-sans-serif, -apple-system, &quot;system-ui&quot;, system-ui, &quot;Segoe UI&quot;, &quot;Google Sans Flex&quot;, Roboto, &quot;Inter Variable&quot;, Inter, &quot;Apple Color Emoji&quot;, &quot;Segoe UI Emoji&quot;, &quot;Segoe UI Symbol&quot;, sans-serif" font-size="15px" font-weight="600" font-style="normal" textLength="47.81" lengthAdjust="spacingAndGlyphs" xml:space="preserve">Lucide</text></g><text x="125" y="247.78" fill="rgb(179, 179, 179)" font-family="&quot;??&quot;, &quot;??&quot;, &quot;??&quot;, ui-sans-serif, -apple-system, &quot;system-ui&quot;, system-ui, &quot;Segoe UI&quot;, &quot;Google Sans Flex&quot;, Roboto, &quot;Inter Variable&quot;, Inter, &quot;Apple Color Emoji&quot;, &quot;Segoe UI Emoji&quot;, &quot;Segoe UI Symbol&quot;, sans-serif" font-size="12px" font-weight="400" font-style="normal" textLength="191.72" lengthAdjust="spacingAndGlyphs" xml:space="preserve">1.9K+ icons · no download needed</text><g xmlns="http://www.w3.org/2000/svg" fill="none" stroke="rgb(179, 179, 179)" stroke-width="1.75px" stroke-linecap="round" stroke-linejoin="round" fill-rule="nonzero" clip-rule="nonzero" opacity="0.85" transform="matrix(0.75 0 0 0.75 530 223.828125)"><path d="M10.733 5.076a10.744 10.744 0 0 1 11.205 6.575 1 1 0 0 1 0 .696 10.747 10.747 0 0 1-1.444 2.49" fill="none" stroke="rgb(179, 179, 179)" stroke-width="1.75px" stroke-linecap="round" stroke-linejoin="round" fill-rule="nonzero" clip-rule="nonzero" opacity="1"/><path d="M14.084 14.158a3 3 0 0 1-4.242-4.242" fill="none" stroke="rgb(179, 179, 179)" stroke-width="1.75px" stroke-linecap="round" stroke-linejoin="round" fill-rule="nonzero" clip-rule="nonzero" opacity="1"/><path d="M17.479 17.499a10.75 10.75 0 0 1-15.417-5.151 1 1 0 0 1 0-.696 10.75 10.75 0 0 1 4.446-5.143" fill="none" stroke="rgb(179, 179, 179)" stroke-width="1.75px" stroke-linecap="round" stroke-linejoin="round" fill-rule="nonzero" clip-rule="nonzero" opacity="1"/><path d="m2 2 20 20" fill="none" stroke="rgb(179, 179, 179)" stroke-width="1.75px" stroke-linecap="round" stroke-linejoin="round" fill-rule="nonzero" clip-rule="nonzero" opacity="1"/></g><rect x="41" y="263.38" width="526" height="53.09" rx="8" fill="rgb(40, 40, 40)" /><g xmlns="http://www.w3.org/2000/svg" fill="none" stroke="rgb(102, 102, 102)" stroke-width="1.75px" stroke-linecap="round" stroke-linejoin="round" fill-rule="nonzero" clip-rule="nonzero" opacity="1" transform="matrix(0.75 0 0 0.75 60 280.921875)"><circle cx="9" cy="12" r="1" fill="none" stroke="rgb(102, 102, 102)" stroke-width="1.75px" stroke-linecap="round" stroke-linejoin="round" fill-rule="nonzero" clip-rule="nonzero" opacity="1"/><circle cx="9" cy="5" r="1" fill="none" stroke="rgb(102, 102, 102)" stroke-width="1.75px" stroke-linecap="round" stroke-linejoin="round" fill-rule="nonzero" clip-rule="nonzero" opacity="1"/><circle cx="9" cy="19" r="1" fill="none" stroke="rgb(102, 102, 102)" stroke-width="1.75px" stroke-linecap="round" stroke-linejoin="round" fill-rule="nonzero" clip-rule="nonzero" opacity="1"/><circle cx="15" cy="12" r="1" fill="none" stroke="rgb(102, 102, 102)" stroke-width="1.75px" stroke-linecap="round" stroke-linejoin="round" fill-rule="nonzero" clip-rule="nonzero" opacity="1"/><circle cx="15" cy="5" r="1" fill="none" stroke="rgb(102, 102, 102)" stroke-width="1.75px" stroke-linecap="round" stroke-linejoin="round" fill-rule="nonzero" clip-rule="nonzero" opacity="1"/><circle cx="15" cy="19" r="1" fill="none" stroke="rgb(102, 102, 102)" stroke-width="1.75px" stroke-linecap="round" stroke-linejoin="round" fill-rule="nonzero" clip-rule="nonzero" opacity="1"/></g><g xmlns="http://www.w3.org/2000/svg" fill="none" stroke="rgb(179, 179, 179)" stroke-width="1.75px" stroke-linecap="round" stroke-linejoin="round" fill-rule="nonzero" clip-rule="nonzero" opacity="1" transform="matrix(0.6666666666666666 0 0 0.6666666666666666 97 281.921875)"><path d="M8.3 10a.7.7 0 0 1-.626-1.079L11.4 3a.7.7 0 0 1 1.198-.043L16.3 8.9a.7.7 0 0 1-.572 1.1Z" fill="none" stroke="rgb(179, 179, 179)" stroke-width="1.75px" stroke-linecap="round" stroke-linejoin="round" fill-rule="nonzero" clip-rule="nonzero" opacity="1"/><rect x="3" y="14" width="7" height="7" rx="1" fill="none" stroke="rgb(179, 179, 179)" stroke-width="1.75px" stroke-linecap="round" stroke-linejoin="round" fill-rule="nonzero" clip-rule="nonzero" opacity="1"/><circle cx="17.5" cy="17.5" r="3.5" fill="none" stroke="rgb(179, 179, 179)" stroke-width="1.75px" stroke-linecap="round" stroke-linejoin="round" fill-rule="nonzero" clip-rule="nonzero" opacity="1"/></g><g clip-path="url(#clip-4)"><text x="125" y="286.38" fill="rgb(218, 218, 218)" font-family="&quot;??&quot;, &quot;??&quot;, &quot;??&quot;, ui-sans-serif, -apple-system, &quot;system-ui&quot;, system-ui, &quot;Segoe UI&quot;, &quot;Google Sans Flex&quot;, Roboto, &quot;Inter Variable&quot;, Inter, &quot;Apple Color Emoji&quot;, &quot;Segoe UI Emoji&quot;, &quot;Segoe UI Symbol&quot;, sans-serif" font-size="15px" font-weight="600" font-style="normal" textLength="58.19" lengthAdjust="spacingAndGlyphs" xml:space="preserve">Material</text></g><text x="125" y="304.88" fill="rgb(179, 179, 179)" font-family="&quot;??&quot;, &quot;??&quot;, &quot;??&quot;, ui-sans-serif, -apple-system, &quot;system-ui&quot;, system-ui, &quot;Segoe UI&quot;, &quot;Google Sans Flex&quot;, Roboto, &quot;Inter Variable&quot;, Inter, &quot;Apple Color Emoji&quot;, &quot;Segoe UI Emoji&quot;, &quot;Segoe UI Symbol&quot;, sans-serif" font-size="12px" font-weight="400" font-style="normal" textLength="268.96" lengthAdjust="spacingAndGlyphs" xml:space="preserve">3.8K+ icons · each icon downloads when picked</text><g xmlns="http://www.w3.org/2000/svg" fill="none" stroke="rgb(179, 179, 179)" stroke-width="1.75px" stroke-linecap="round" stroke-linejoin="round" fill-rule="nonzero" clip-rule="nonzero" opacity="0.85" transform="matrix(0.75 0 0 0.75 530 280.921875)"><path d="M10.733 5.076a10.744 10.744 0 0 1 11.205 6.575 1 1 0 0 1 0 .696 10.747 10.747 0 0 1-1.444 2.49" fill="none" stroke="rgb(179, 179, 179)" stroke-width="1.75px" stroke-linecap="round" stroke-linejoin="round" fill-rule="nonzero" clip-rule="nonzero" opacity="1"/><path d="M14.084 14.158a3 3 0 0 1-4.242-4.242" fill="none" stroke="rgb(179, 179, 179)" stroke-width="1.75px" stroke-linecap="round" stroke-linejoin="round" fill-rule="nonzero" clip-rule="nonzero" opacity="1"/><path d="M17.479 17.499a10.75 10.75 0 0 1-15.417-5.151 1 1 0 0 1 0-.696 10.75 10.75 0 0 1 4.446-5.143" fill="none" stroke="rgb(179, 179, 179)" stroke-width="1.75px" stroke-linecap="round" stroke-linejoin="round" fill-rule="nonzero" clip-rule="nonzero" opacity="1"/><path d="m2 2 20 20" fill="none" stroke="rgb(179, 179, 179)" stroke-width="1.75px" stroke-linecap="round" stroke-linejoin="round" fill-rule="nonzero" clip-rule="nonzero" opacity="1"/></g><rect x="41" y="320.47" width="526" height="53.09" rx="8" fill="rgb(40, 40, 40)" /><g xmlns="http://www.w3.org/2000/svg" fill="none" stroke="rgb(102, 102, 102)" stroke-width="1.75px" stroke-linecap="round" stroke-linejoin="round" fill-rule="nonzero" clip-rule="nonzero" opacity="1" transform="matrix(0.75 0 0 0.75 60 338.015625)"><circle cx="9" cy="12" r="1" fill="none" stroke="rgb(102, 102, 102)" stroke-width="1.75px" stroke-linecap="round" stroke-linejoin="round" fill-rule="nonzero" clip-rule="nonzero" opacity="1"/><circle cx="9" cy="5" r="1" fill="none" stroke="rgb(102, 102, 102)" stroke-width="1.75px" stroke-linecap="round" stroke-linejoin="round" fill-rule="nonzero" clip-rule="nonzero" opacity="1"/><circle cx="9" cy="19" r="1" fill="none" stroke="rgb(102, 102, 102)" stroke-width="1.75px" stroke-linecap="round" stroke-linejoin="round" fill-rule="nonzero" clip-rule="nonzero" opacity="1"/><circle cx="15" cy="12" r="1" fill="none" stroke="rgb(102, 102, 102)" stroke-width="1.75px" stroke-linecap="round" stroke-linejoin="round" fill-rule="nonzero" clip-rule="nonzero" opacity="1"/><circle cx="15" cy="5" r="1" fill="none" stroke="rgb(102, 102, 102)" stroke-width="1.75px" stroke-linecap="round" stroke-linejoin="round" fill-rule="nonzero" clip-rule="nonzero" opacity="1"/><circle cx="15" cy="19" r="1" fill="none" stroke="rgb(102, 102, 102)" stroke-width="1.75px" stroke-linecap="round" stroke-linejoin="round" fill-rule="nonzero" clip-rule="nonzero" opacity="1"/></g><g xmlns="http://www.w3.org/2000/svg" fill="none" stroke="rgb(179, 179, 179)" stroke-width="1.75px" stroke-linecap="round" stroke-linejoin="round" fill-rule="nonzero" clip-rule="nonzero" opacity="1" transform="matrix(0.6666666666666666 0 0 0.6666666666666666 97 339.015625)"><circle cx="12" cy="12" r="10" fill="none" stroke="rgb(179, 179, 179)" stroke-width="1.75px" stroke-linecap="round" stroke-linejoin="round" fill-rule="nonzero" clip-rule="nonzero" opacity="1"/><path d="M8 14s1.5 2 4 2 4-2 4-2" fill="none" stroke="rgb(179, 179, 179)" stroke-width="1.75px" stroke-linecap="round" stroke-linejoin="round" fill-rule="nonzero" clip-rule="nonzero" opacity="1"/><line x1="9" y1="9" x2="9.01" y2="9" fill="none" stroke="rgb(179, 179, 179)" stroke-width="1.75px" stroke-linecap="round" stroke-linejoin="round" fill-rule="nonzero" clip-rule="nonzero" opacity="1"/><line x1="15" y1="9" x2="15.01" y2="9" fill="none" stroke="rgb(179, 179, 179)" stroke-width="1.75px" stroke-linecap="round" stroke-linejoin="round" fill-rule="nonzero" clip-rule="nonzero" opacity="1"/></g><g clip-path="url(#clip-5)"><text x="125" y="343.47" fill="rgb(218, 218, 218)" font-family="&quot;??&quot;, &quot;??&quot;, &quot;??&quot;, ui-sans-serif, -apple-system, &quot;system-ui&quot;, system-ui, &quot;Segoe UI&quot;, &quot;Google Sans Flex&quot;, Roboto, &quot;Inter Variable&quot;, Inter, &quot;Apple Color Emoji&quot;, &quot;Segoe UI Emoji&quot;, &quot;Segoe UI Symbol&quot;, sans-serif" font-size="15px" font-weight="600" font-style="normal" textLength="39.06" lengthAdjust="spacingAndGlyphs" xml:space="preserve">Emoji</text></g><text x="125" y="361.97" fill="rgb(179, 179, 179)" font-family="&quot;??&quot;, &quot;??&quot;, &quot;??&quot;, ui-sans-serif, -apple-system, &quot;system-ui&quot;, system-ui, &quot;Segoe UI&quot;, &quot;Google Sans Flex&quot;, Roboto, &quot;Inter Variable&quot;, Inter, &quot;Apple Color Emoji&quot;, &quot;Segoe UI Emoji&quot;, &quot;Segoe UI Symbol&quot;, sans-serif" font-size="12px" font-weight="400" font-style="normal" textLength="191.72" lengthAdjust="spacingAndGlyphs" xml:space="preserve">1.9K+ icons · no download needed</text><g xmlns="http://www.w3.org/2000/svg" fill="none" stroke="rgb(179, 179, 179)" stroke-width="1.75px" stroke-linecap="round" stroke-linejoin="round" fill-rule="nonzero" clip-rule="nonzero" opacity="0.85" transform="matrix(0.75 0 0 0.75 530 338.015625)"><path d="M10.733 5.076a10.744 10.744 0 0 1 11.205 6.575 1 1 0 0 1 0 .696 10.747 10.747 0 0 1-1.444 2.49" fill="none" stroke="rgb(179, 179, 179)" stroke-width="1.75px" stroke-linecap="round" stroke-linejoin="round" fill-rule="nonzero" clip-rule="nonzero" opacity="1"/><path d="M14.084 14.158a3 3 0 0 1-4.242-4.242" fill="none" stroke="rgb(179, 179, 179)" stroke-width="1.75px" stroke-linecap="round" stroke-linejoin="round" fill-rule="nonzero" clip-rule="nonzero" opacity="1"/><path d="M17.479 17.499a10.75 10.75 0 0 1-15.417-5.151 1 1 0 0 1 0-.696 10.75 10.75 0 0 1 4.446-5.143" fill="none" stroke="rgb(179, 179, 179)" stroke-width="1.75px" stroke-linecap="round" stroke-linejoin="round" fill-rule="nonzero" clip-rule="nonzero" opacity="1"/><path d="m2 2 20 20" fill="none" stroke="rgb(179, 179, 179)" stroke-width="1.75px" stroke-linecap="round" stroke-linejoin="round" fill-rule="nonzero" clip-rule="nonzero" opacity="1"/></g><rect x="41" y="377.56" width="526" height="53.09" rx="8" fill="rgb(40, 40, 40)" /><g xmlns="http://www.w3.org/2000/svg" fill="none" stroke="rgb(102, 102, 102)" stroke-width="1.75px" stroke-linecap="round" stroke-linejoin="round" fill-rule="nonzero" clip-rule="nonzero" opacity="1" transform="matrix(0.75 0 0 0.75 60 395.109375)"><circle cx="9" cy="12" r="1" fill="none" stroke="rgb(102, 102, 102)" stroke-width="1.75px" stroke-linecap="round" stroke-linejoin="round" fill-rule="nonzero" clip-rule="nonzero" opacity="1"/><circle cx="9" cy="5" r="1" fill="none" stroke="rgb(102, 102, 102)" stroke-width="1.75px" stroke-linecap="round" stroke-linejoin="round" fill-rule="nonzero" clip-rule="nonzero" opacity="1"/><circle cx="9" cy="19" r="1" fill="none" stroke="rgb(102, 102, 102)" stroke-width="1.75px" stroke-linecap="round" stroke-linejoin="round" fill-rule="nonzero" clip-rule="nonzero" opacity="1"/><circle cx="15" cy="12" r="1" fill="none" stroke="rgb(102, 102, 102)" stroke-width="1.75px" stroke-linecap="round" stroke-linejoin="round" fill-rule="nonzero" clip-rule="nonzero" opacity="1"/><circle cx="15" cy="5" r="1" fill="none" stroke="rgb(102, 102, 102)" stroke-width="1.75px" stroke-linecap="round" stroke-linejoin="round" fill-rule="nonzero" clip-rule="nonzero" opacity="1"/><circle cx="15" cy="19" r="1" fill="none" stroke="rgb(102, 102, 102)" stroke-width="1.75px" stroke-linecap="round" stroke-linejoin="round" fill-rule="nonzero" clip-rule="nonzero" opacity="1"/></g><g xmlns="http://www.w3.org/2000/svg" fill="none" stroke="rgb(179, 179, 179)" stroke-width="1.75px" stroke-linecap="round" stroke-linejoin="round" fill-rule="nonzero" clip-rule="nonzero" opacity="1" transform="matrix(0.6666666666666666 0 0 0.6666666666666666 97 396.109375)"><rect x="3" y="3" width="18" height="18" rx="2" ry="2" fill="none" stroke="rgb(179, 179, 179)" stroke-width="1.75px" stroke-linecap="round" stroke-linejoin="round" fill-rule="nonzero" clip-rule="nonzero" opacity="1"/><circle cx="9" cy="9" r="2" fill="none" stroke="rgb(179, 179, 179)" stroke-width="1.75px" stroke-linecap="round" stroke-linejoin="round" fill-rule="nonzero" clip-rule="nonzero" opacity="1"/><path d="m21 15-3.086-3.086a2 2 0 0 0-2.828 0L6 21" fill="none" stroke="rgb(179, 179, 179)" stroke-width="1.75px" stroke-linecap="round" stroke-linejoin="round" fill-rule="nonzero" clip-rule="nonzero" opacity="1"/></g><g clip-path="url(#clip-6)"><text x="125" y="400.56" fill="rgb(218, 218, 218)" font-family="&quot;??&quot;, &quot;??&quot;, &quot;??&quot;, ui-sans-serif, -apple-system, &quot;system-ui&quot;, system-ui, &quot;Segoe UI&quot;, &quot;Google Sans Flex&quot;, Roboto, &quot;Inter Variable&quot;, Inter, &quot;Apple Color Emoji&quot;, &quot;Segoe UI Emoji&quot;, &quot;Segoe UI Symbol&quot;, sans-serif" font-size="15px" font-weight="600" font-style="normal" textLength="98.11" lengthAdjust="spacingAndGlyphs" xml:space="preserve">Custom Icons</text></g><text x="125" y="419.06" fill="rgb(179, 179, 179)" font-family="&quot;??&quot;, &quot;??&quot;, &quot;??&quot;, ui-sans-serif, -apple-system, &quot;system-ui&quot;, system-ui, &quot;Segoe UI&quot;, &quot;Google Sans Flex&quot;, Roboto, &quot;Inter Variable&quot;, Inter, &quot;Apple Color Emoji&quot;, &quot;Segoe UI Emoji&quot;, &quot;Segoe UI Symbol&quot;, sans-serif" font-size="12px" font-weight="400" font-style="normal" textLength="41" lengthAdjust="spacingAndGlyphs" xml:space="preserve">0 icons</text><g xmlns="http://www.w3.org/2000/svg" fill="none" stroke="rgb(179, 179, 179)" stroke-width="1.75px" stroke-linecap="round" stroke-linejoin="round" fill-rule="nonzero" clip-rule="nonzero" opacity="0.85" transform="matrix(0.75 0 0 0.75 530 395.109375)"><path d="M10.733 5.076a10.744 10.744 0 0 1 11.205 6.575 1 1 0 0 1 0 .696 10.747 10.747 0 0 1-1.444 2.49" fill="none" stroke="rgb(179, 179, 179)" stroke-width="1.75px" stroke-linecap="round" stroke-linejoin="round" fill-rule="nonzero" clip-rule="nonzero" opacity="1"/><path d="M14.084 14.158a3 3 0 0 1-4.242-4.242" fill="none" stroke="rgb(179, 179, 179)" stroke-width="1.75px" stroke-linecap="round" stroke-linejoin="round" fill-rule="nonzero" clip-rule="nonzero" opacity="1"/><path d="M17.479 17.499a10.75 10.75 0 0 1-15.417-5.151 1 1 0 0 1 0-.696 10.75 10.75 0 0 1 4.446-5.143" fill="none" stroke="rgb(179, 179, 179)" stroke-width="1.75px" stroke-linecap="round" stroke-linejoin="round" fill-rule="nonzero" clip-rule="nonzero" opacity="1"/><path d="m2 2 20 20" fill="none" stroke="rgb(179, 179, 179)" stroke-width="1.75px" stroke-linecap="round" stroke-linejoin="round" fill-rule="nonzero" clip-rule="nonzero" opacity="1"/></g><rect x="41" y="466.66" width="526" height="1" rx="0" fill="rgb(51, 51, 51)" /><text x="41" y="518.66" fill="rgb(218, 218, 218)" font-family="&quot;??&quot;, &quot;??&quot;, &quot;??&quot;, ui-sans-serif, -apple-system, &quot;system-ui&quot;, system-ui, &quot;Segoe UI&quot;, &quot;Google Sans Flex&quot;, Roboto, &quot;Inter Variable&quot;, Inter, &quot;Apple Color Emoji&quot;, &quot;Segoe UI Emoji&quot;, &quot;Segoe UI Symbol&quot;, sans-serif" font-size="15px" font-weight="600" font-style="normal" textLength="154.44" lengthAdjust="spacingAndGlyphs" xml:space="preserve">Libraries to download</text><rect x="41" y="539.16" width="526" height="53.09" rx="8" fill="rgb(40, 40, 40)" /><g opacity="0.55"><g xmlns="http://www.w3.org/2000/svg" fill="none" stroke="rgb(179, 179, 179)" stroke-width="1.75px" stroke-linecap="round" stroke-linejoin="round" fill-rule="nonzero" clip-rule="nonzero" opacity="1" transform="matrix(0.6666666666666666 0 0 0.6666666666666666 97 557.703125)"><path d="m7 11 2-2-2-2" fill="none" stroke="rgb(179, 179, 179)" stroke-width="1.75px" stroke-linecap="round" stroke-linejoin="round" fill-rule="nonzero" clip-rule="nonzero" opacity="1"/><path d="M11 13h4" fill="none" stroke="rgb(179, 179, 179)" stroke-width="1.75px" stroke-linecap="round" stroke-linejoin="round" fill-rule="nonzero" clip-rule="nonzero" opacity="1"/><rect x="3" y="3" width="18" height="18" rx="2" ry="2" fill="none" stroke="rgb(179, 179, 179)" stroke-width="1.75px" stroke-linecap="round" stroke-linejoin="round" fill-rule="nonzero" clip-rule="nonzero" opacity="1"/></g></g><g opacity="0.55"><g clip-path="url(#clip-7)"><text x="125" y="562.16" fill="rgb(218, 218, 218)" font-family="&quot;??&quot;, &quot;??&quot;, &quot;??&quot;, ui-sans-serif, -apple-system, &quot;system-ui&quot;, system-ui, &quot;Segoe UI&quot;, &quot;Google Sans Flex&quot;, Roboto, &quot;Inter Variable&quot;, Inter, &quot;Apple Color Emoji&quot;, &quot;Segoe UI Emoji&quot;, &quot;Segoe UI Symbol&quot;, sans-serif" font-size="15px" font-weight="600" font-style="normal" textLength="86.89" lengthAdjust="spacingAndGlyphs" xml:space="preserve">Tabler Icons</text></g><text x="125" y="580.66" fill="rgb(179, 179, 179)" font-family="&quot;??&quot;, &quot;??&quot;, &quot;??&quot;, ui-sans-serif, -apple-system, &quot;system-ui&quot;, system-ui, &quot;Segoe UI&quot;, &quot;Google Sans Flex&quot;, Roboto, &quot;Inter Variable&quot;, Inter, &quot;Apple Color Emoji&quot;, &quot;Segoe UI Emoji&quot;, &quot;Segoe UI Symbol&quot;, sans-serif" font-size="12px" font-weight="400" font-style="normal" textLength="111.47" lengthAdjust="spacingAndGlyphs" xml:space="preserve">5.1K+ icons · 1.6 MB</text></g><g xmlns="http://www.w3.org/2000/svg" fill="none" stroke="rgb(179, 179, 179)" stroke-width="1.75px" stroke-linecap="round" stroke-linejoin="round" fill-rule="nonzero" clip-rule="nonzero" opacity="0.85" transform="matrix(0.75 0 0 0.75 530 556.703125)"><path d="M12 15V3" fill="none" stroke="rgb(179, 179, 179)" stroke-width="1.75px" stroke-linecap="round" stroke-linejoin="round" fill-rule="nonzero" clip-rule="nonzero" opacity="1"/><path d="M21 15v4a2 2 0 0 1-2 2H5a2 2 0 0 1-2-2v-4" fill="none" stroke="rgb(179, 179, 179)" stroke-width="1.75px" stroke-linecap="round" stroke-linejoin="round" fill-rule="nonzero" clip-rule="nonzero" opacity="1"/><path d="m7 10 5 5 5-5" fill="none" stroke="rgb(179, 179, 179)" stroke-width="1.75px" stroke-linecap="round" stroke-linejoin="round" fill-rule="nonzero" clip-rule="nonzero" opacity="1"/></g><rect x="41" y="596.25" width="526" height="53.09" rx="8" fill="rgb(40, 40, 40)" /><g opacity="0.55"><g xmlns="http://www.w3.org/2000/svg" fill="none" stroke="rgb(179, 179, 179)" stroke-width="1.75px" stroke-linecap="round" stroke-linejoin="round" fill-rule="nonzero" clip-rule="nonzero" opacity="1" transform="matrix(0.6666666666666666 0 0 0.6666666666666666 97 614.796875)"><path d="M15 22v-4a4.8 4.8 0 0 0-1-3.5c3 0 6-2 6-5.5.08-1.25-.27-2.48-1-3.5.28-1.15.28-2.35 0-3.5 0 0-1 0-3 1.5-2.64-.5-5.36-.5-8 0C6 2 5 2 5 2c-.3 1.15-.3 2.35 0 3.5A5.403 5.403 0 0 0 4 9c0 3.5 3 5.5 6 5.5-.39.49-.68 1.05-.85 1.65-.17.6-.22 1.23-.15 1.85v4" fill="none" stroke="rgb(179, 179, 179)" stroke-width="1.75px" stroke-linecap="round" stroke-linejoin="round" fill-rule="nonzero" clip-rule="nonzero" opacity="1"/><path d="M9 18c-4.51 2-5-2-7-2" fill="none" stroke="rgb(179, 179, 179)" stroke-width="1.75px" stroke-linecap="round" stroke-linejoin="round" fill-rule="nonzero" clip-rule="nonzero" opacity="1"/></g></g><g opacity="0.55"><g clip-path="url(#clip-8)"><text x="125" y="619.25" fill="rgb(218, 218, 218)" font-family="&quot;??&quot;, &quot;??&quot;, &quot;??&quot;, ui-sans-serif, -apple-system, &quot;system-ui&quot;, system-ui, &quot;Segoe UI&quot;, &quot;Google Sans Flex&quot;, Roboto, &quot;Inter Variable&quot;, Inter, &quot;Apple Color Emoji&quot;, &quot;Segoe UI Emoji&quot;, &quot;Segoe UI Symbol&quot;, sans-serif" font-size="15px" font-weight="600" font-style="normal" textLength="63.97" lengthAdjust="spacingAndGlyphs" xml:space="preserve">Octicons</text></g><text x="125" y="637.75" fill="rgb(179, 179, 179)" font-family="&quot;??&quot;, &quot;??&quot;, &quot;??&quot;, ui-sans-serif, -apple-system, &quot;system-ui&quot;, system-ui, &quot;Segoe UI&quot;, &quot;Google Sans Flex&quot;, Roboto, &quot;Inter Variable&quot;, Inter, &quot;Apple Color Emoji&quot;, &quot;Segoe UI Emoji&quot;, &quot;Segoe UI Symbol&quot;, sans-serif" font-size="12px" font-weight="400" font-style="normal" textLength="114.77" lengthAdjust="spacingAndGlyphs" xml:space="preserve">300+ icons · 375 KB</text></g><g xmlns="http://www.w3.org/2000/svg" fill="none" stroke="rgb(179, 179, 179)" stroke-width="1.75px" stroke-linecap="round" stroke-linejoin="round" fill-rule="nonzero" clip-rule="nonzero" opacity="0.85" transform="matrix(0.75 0 0 0.75 530 613.796875)"><path d="M12 15V3" fill="none" stroke="rgb(179, 179, 179)" stroke-width="1.75px" stroke-linecap="round" stroke-linejoin="round" fill-rule="nonzero" clip-rule="nonzero" opacity="1"/><path d="M21 15v4a2 2 0 0 1-2 2H5a2 2 0 0 1-2-2v-4" fill="none" stroke="rgb(179, 179, 179)" stroke-width="1.75px" stroke-linecap="round" stroke-linejoin="round" fill-rule="nonzero" clip-rule="nonzero" opacity="1"/><path d="m7 10 5 5 5-5" fill="none" stroke="rgb(179, 179, 179)" stroke-width="1.75px" stroke-linecap="round" stroke-linejoin="round" fill-rule="nonzero" clip-rule="nonzero" opacity="1"/></g><rect x="41" y="653.34" width="526" height="53.09" rx="8" fill="rgb(40, 40, 40)" /><g opacity="0.55"><g xmlns="http://www.w3.org/2000/svg" fill="none" stroke="rgb(179, 179, 179)" stroke-width="1.75px" stroke-linecap="round" stroke-linejoin="round" fill-rule="nonzero" clip-rule="nonzero" opacity="1" transform="matrix(0.6666666666666666 0 0 0.6666666666666666 97 671.890625)"><path d="M4 22V4a1 1 0 0 1 .4-.8A6 6 0 0 1 8 2c3 0 5 2 7.333 2q2 0 3.067-.8A1 1 0 0 1 20 4v10a1 1 0 0 1-.4.8A6 6 0 0 1 16 16c-3 0-5-2-8-2a6 6 0 0 0-4 1.528" fill="none" stroke="rgb(179, 179, 179)" stroke-width="1.75px" stroke-linecap="round" stroke-linejoin="round" fill-rule="nonzero" clip-rule="nonzero" opacity="1"/></g></g><g opacity="0.55"><g clip-path="url(#clip-9)"><text x="125" y="676.34" fill="rgb(218, 218, 218)" font-family="&quot;??&quot;, &quot;??&quot;, &quot;??&quot;, ui-sans-serif, -apple-system, &quot;system-ui&quot;, system-ui, &quot;Segoe UI&quot;, &quot;Google Sans Flex&quot;, Roboto, &quot;Inter Variable&quot;, Inter, &quot;Apple Color Emoji&quot;, &quot;Segoe UI Emoji&quot;, &quot;Segoe UI Symbol&quot;, sans-serif" font-size="15px" font-weight="600" font-style="normal" textLength="104.86" lengthAdjust="spacingAndGlyphs" xml:space="preserve">Font Awesome</text></g><text x="125" y="694.84" fill="rgb(179, 179, 179)" font-family="&quot;??&quot;, &quot;??&quot;, &quot;??&quot;, ui-sans-serif, -apple-system, &quot;system-ui&quot;, system-ui, &quot;Segoe UI&quot;, &quot;Google Sans Flex&quot;, Roboto, &quot;Inter Variable&quot;, Inter, &quot;Apple Color Emoji&quot;, &quot;Segoe UI Emoji&quot;, &quot;Segoe UI Symbol&quot;, sans-serif" font-size="12px" font-weight="400" font-style="normal" textLength="111.89" lengthAdjust="spacingAndGlyphs" xml:space="preserve">1.9K+ icons · 1.4 MB</text></g><g xmlns="http://www.w3.org/2000/svg" fill="none" stroke="rgb(179, 179, 179)" stroke-width="1.75px" stroke-linecap="round" stroke-linejoin="round" fill-rule="nonzero" clip-rule="nonzero" opacity="0.85" transform="matrix(0.75 0 0 0.75 530 670.890625)"><path d="M12 15V3" fill="none" stroke="rgb(179, 179, 179)" stroke-width="1.75px" stroke-linecap="round" stroke-linejoin="round" fill-rule="nonzero" clip-rule="nonzero" opacity="1"/><path d="M21 15v4a2 2 0 0 1-2 2H5a2 2 0 0 1-2-2v-4" fill="none" stroke="rgb(179, 179, 179)" stroke-width="1.75px" stroke-linecap="round" stroke-linejoin="round" fill-rule="nonzero" clip-rule="nonzero" opacity="1"/><path d="m7 10 5 5 5-5" fill="none" stroke="rgb(179, 179, 179)" stroke-width="1.75px" stroke-linecap="round" stroke-linejoin="round" fill-rule="nonzero" clip-rule="nonzero" opacity="1"/></g><rect x="41" y="710.44" width="526" height="53.09" rx="8" fill="rgb(40, 40, 40)" /><g opacity="0.55"><g clip-path="url(#clip-10)"><text x="125" y="733.44" fill="rgb(218, 218, 218)" font-family="&quot;??&quot;, &quot;??&quot;, &quot;??&quot;, ui-sans-serif, -apple-system, &quot;system-ui&quot;, system-ui, &quot;Segoe UI&quot;, &quot;Google Sans Flex&quot;, Roboto, &quot;Inter Variable&quot;, Inter, &quot;Apple Color Emoji&quot;, &quot;Segoe UI Emoji&quot;, &quot;Segoe UI Symbol&quot;, sans-serif" font-size="15px" font-weight="600" font-style="normal" textLength="103.44" lengthAdjust="spacingAndGlyphs" xml:space="preserve">RPG Awesome</text></g></g><g xmlns="http://www.w3.org/2000/svg" fill="none" stroke="rgb(179, 179, 179)" stroke-width="1.75px" stroke-linecap="round" stroke-linejoin="round" fill-rule="nonzero" clip-rule="nonzero" opacity="0.85" transform="matrix(0.75 0 0 0.75 530 727.984375)"><path d="M12 15V3" fill="none" stroke="rgb(179, 179, 179)" stroke-width="1.75px" stroke-linecap="round" stroke-linejoin="round" fill-rule="nonzero" clip-rule="nonzero" opacity="1"/><path d="M21 15v4a2 2 0 0 1-2 2H5a2 2 0 0 1-2-2v-4" fill="none" stroke="rgb(179, 179, 179)" stroke-width="1.75px" stroke-linecap="round" stroke-linejoin="round" fill-rule="nonzero" clip-rule="nonzero" opacity="1"/><path d="m7 10 5 5 5-5" fill="none" stroke="rgb(179, 179, 179)" stroke-width="1.75px" stroke-linecap="round" stroke-linejoin="round" fill-rule="nonzero" clip-rule="nonzero" opacity="1"/></g></g><g xmlns="http://www.w3.org/2000/svg" fill="none" stroke="rgb(218, 218, 218)" stroke-width="1.75px" stroke-linecap="round" stroke-linejoin="round" fill-rule="nonzero" clip-rule="nonzero" opacity="1" transform="matrix(0.75 0 0 0.75 555 35)"><path d="M18 6 6 18" fill="none" stroke="rgb(218, 218, 218)" stroke-width="1.75px" stroke-linecap="round" stroke-linejoin="round" fill-rule="nonzero" clip-rule="nonzero" opacity="1"/><path d="m6 6 12 12" fill="none" stroke="rgb(218, 218, 218)" stroke-width="1.75px" stroke-linecap="round" stroke-linejoin="round" fill-rule="nonzero" clip-rule="nonzero" opacity="1"/></g></g></svg>
