<svg xmlns="http://www.w3.org/2000/svg" width="848" height="372" viewBox="0 0 848 372" role="img" aria-labelledby="title description"><title id="title">Block callouts with titles and paragraphs</title><desc id="description">Obsidian's reading-view Markdown shell supplies the documented block-callout structure; the plugin's production postprocessor, generated CSS, and icon painter render Note and Tip in the default dark theme. Titles and content come from the example Markdown.</desc><defs><clipPath id="clip-1"><rect x="81" y="89.8" width="683" height="96" rx="0" fill="white" /></clipPath><clipPath id="clip-2"><rect x="57" y="57" width="719" height="140.8" rx="4" fill="white" /></clipPath><clipPath id="clip-3"><rect x="81" y="246.59" width="683" height="56" rx="0" fill="white" /></clipPath><clipPath id="clip-4"><rect x="57" y="213.8" width="719" height="100.8" rx="4" fill="white" /></clipPath><clipPath id="clip-5"><rect x="24" y="24" width="800" height="323.59" rx="12" fill="white" /></clipPath></defs><rect x="0" y="0" width="848" height="372" rx="12" fill="rgb(28, 28, 28)" /><rect x="24" y="24" width="800" height="323.59" rx="12" fill="rgb(28, 28, 28)" /><rect x="24.5" y="24.5" width="799" height="322.59" rx="11.5" fill="none" stroke="rgb(51, 51, 51)" stroke-width="1"/><g clip-path="url(#clip-5)"><rect x="57" y="57" width="719" height="140.8" rx="4" fill="rgba(2.1, 121.99, 254.98, 0.1)" /><g clip-path="url(#clip-2)"><g xmlns="http://www.w3.org/2000/svg" fill="none" stroke="rgb(2, 122, 255)" stroke-width="1.75px" stroke-linecap="round" stroke-linejoin="round" fill-rule="nonzero" clip-rule="nonzero" opacity="1" transform="matrix(0.75 0 0 0.75 81 70.390625)"><path d="M21.174 6.812a1 1 0 0 0-3.986-3.987L3.842 16.174a2 2 0 0 0-.5.83l-1.321 4.352a.5.5 0 0 0 .623.622l4.353-1.32a2 2 0 0 0 .83-.497z" fill="none" stroke="rgb(2, 122, 255)" stroke-width="1.75px" stroke-linecap="round" stroke-linejoin="round" fill-rule="nonzero" clip-rule="nonzero" opacity="1"/><path d="m15 5 4 4" fill="none" stroke="rgb(2, 122, 255)" stroke-width="1.75px" stroke-linecap="round" stroke-linejoin="round" fill-rule="nonzero" clip-rule="nonzero" opacity="1"/></g><text x="105.39" y="85" fill="rgb(2, 122, 255)" font-family="&quot;??&quot;, &quot;??&quot;, ui-sans-serif, -apple-system, &quot;system-ui&quot;, system-ui, &quot;Segoe UI&quot;, &quot;Google Sans Flex&quot;, Roboto, &quot;Inter Variable&quot;, Inter, &quot;Apple Color Emoji&quot;, &quot;Segoe UI Emoji&quot;, &quot;Segoe UI Symbol&quot;, sans-serif" font-size="16px" font-weight="600" font-style="normal" textLength="116.86" lengthAdjust="spacingAndGlyphs" xml:space="preserve">My custom title</text><g clip-path="url(#clip-1)"><text x="81" y="123.8" fill="rgb(218, 218, 218)" font-family="&quot;??&quot;, &quot;??&quot;, ui-sans-serif, -apple-system, &quot;system-ui&quot;, system-ui, &quot;Segoe UI&quot;, &quot;Google Sans Flex&quot;, Roboto, &quot;Inter Variable&quot;, Inter, &quot;Apple Color Emoji&quot;, &quot;Segoe UI Emoji&quot;, &quot;Segoe UI Symbol&quot;, sans-serif" font-size="16px" font-weight="400" font-style="normal" textLength="114.78" lengthAdjust="spacingAndGlyphs" xml:space="preserve">First paragraph.</text><text x="81" y="163.8" fill="rgb(218, 218, 218)" font-family="&quot;??&quot;, &quot;??&quot;, ui-sans-serif, -apple-system, &quot;system-ui&quot;, system-ui, &quot;Segoe UI&quot;, &quot;Google Sans Flex&quot;, Roboto, &quot;Inter Variable&quot;, Inter, &quot;Apple Color Emoji&quot;, &quot;Segoe UI Emoji&quot;, &quot;Segoe UI Symbol&quot;, sans-serif" font-size="16px" font-weight="400" font-style="normal" textLength="138.22" lengthAdjust="spacingAndGlyphs" xml:space="preserve">Second paragraph.</text></g></g><rect x="57" y="213.8" width="719" height="100.8" rx="4" fill="rgba(83.07, 222.99, 220.99, 0.1)" /><g clip-path="url(#clip-4)"><g xmlns="http://www.w3.org/2000/svg" fill="none" stroke="rgb(83, 223, 221)" stroke-width="1.75px" stroke-linecap="round" stroke-linejoin="round" fill-rule="nonzero" clip-rule="nonzero" opacity="1" transform="matrix(0.75 0 0 0.75 81 227.1875)"><path d="M12 3q1 4 4 6.5t3 5.5a1 1 0 0 1-14 0 5 5 0 0 1 1-3 1 1 0 0 0 5 0c0-2-1.5-3-1.5-5q0-2 2.5-4" fill="none" stroke="rgb(83, 223, 221)" stroke-width="1.75px" stroke-linecap="round" stroke-linejoin="round" fill-rule="nonzero" clip-rule="nonzero" opacity="1"/></g><text x="105.39" y="241.8" fill="rgb(83, 223, 221)" font-family="&quot;??&quot;, &quot;??&quot;, ui-sans-serif, -apple-system, &quot;system-ui&quot;, system-ui, &quot;Segoe UI&quot;, &quot;Google Sans Flex&quot;, Roboto, &quot;Inter Variable&quot;, Inter, &quot;Apple Color Emoji&quot;, &quot;Segoe UI Emoji&quot;, &quot;Segoe UI Symbol&quot;, sans-serif" font-size="16px" font-weight="600" font-style="normal" textLength="136.11" lengthAdjust="spacingAndGlyphs" xml:space="preserve">A useful next step</text><g clip-path="url(#clip-3)"><text x="81" y="280.59" fill="rgb(218, 218, 218)" font-family="&quot;??&quot;, &quot;??&quot;, ui-sans-serif, -apple-system, &quot;system-ui&quot;, system-ui, &quot;Segoe UI&quot;, &quot;Google Sans Flex&quot;, Roboto, &quot;Inter Variable&quot;, Inter, &quot;Apple Color Emoji&quot;, &quot;Segoe UI Emoji&quot;, &quot;Segoe UI Symbol&quot;, sans-serif" font-size="16px" font-weight="400" font-style="normal" textLength="298.14" lengthAdjust="spacingAndGlyphs" xml:space="preserve">Keep a standalone idea in a block callout.</text></g></g></g></svg>
