<svg xmlns="http://www.w3.org/2000/svg" width="900" height="1600" viewBox="0 0 900 1600" role="img" aria-labelledby="title description"><title id="title">Your callouts, all together. — Callout Studio</title><desc id="description">The production settings list shows Idea, Meeting, and Research with two IDs each above all thirteen expanded built-in callouts, with their actual color swatches and editing controls. Production components in phone layout with synthetic content on a purple promotional background, without a simulated Obsidian workspace. Mobile store artwork, 900 by 1600 pixels.</desc><defs>
	<radialGradient id="ambient" cx="50%" cy="55%" r="72%"><stop stop-color="#392565"/><stop offset=".5" stop-color="#211932"/><stop offset="1" stop-color="#111016"/></radialGradient>
	<clipPath id="phone-screen"><rect x="30.75" y="238" width="838.5" height="1333.8" rx="20" fill="white" /></clipPath>
	</defs><rect x="0" y="0" width="900" height="1600" rx="0" fill="url(#ambient)" /><text x="450" y="121" font-family="Arial, Helvetica, sans-serif" font-size="60" fill="#F7F3FF" font-weight="700" letter-spacing="-1.6" text-anchor="middle">Your callouts,</text><text x="450" y="188" font-family="Arial, Helvetica, sans-serif" font-size="60" fill="#F7F3FF" font-weight="700" letter-spacing="-1.6" text-anchor="middle">all together.</text><g clip-path="url(#phone-screen)"><g transform="translate(30.75 238) scale(1.95)"><title id="01-settings-title">All your callouts. One creative space.</title><desc id="01-settings-description">The production settings list shows Idea, Meeting, and Research with two IDs each above all thirteen expanded built-in callouts, with their actual color swatches and editing controls.</desc><defs><clipPath id="01-settings-clip-1"><rect x="32" y="16" width="157.84" height="31.17" rx="0" fill="white" /></clipPath><clipPath id="01-settings-clip-2"><rect x="72" y="201.22" width="32.48" height="20.8" rx="0" fill="white" /></clipPath><clipPath id="01-settings-clip-3"><rect x="72" y="251.22" width="61.7" height="20.8" rx="0" fill="white" /></clipPath><clipPath id="01-settings-clip-4"><rect x="72" y="301.22" width="70.7" height="20.8" rx="0" fill="white" /></clipPath><clipPath id="01-settings-clip-5"><rect x="10.27" y="95.17" width="387.73" height="20.45" rx="0" fill="white" /></clipPath><clipPath id="01-settings-clip-6"><rect x="72" y="453.78" width="65.75" height="20.8" rx="0" fill="white" /></clipPath><clipPath id="01-settings-clip-7"><rect x="72" y="503.78" width="29.91" height="20.8" rx="0" fill="white" /></clipPath><clipPath id="01-settings-clip-8"><rect x="72" y="553.78" width="55.22" height="20.8" rx="0" fill="white" /></clipPath><clipPath id="01-settings-clip-9"><rect x="72" y="603.78" width="64.47" height="20.8" rx="0" fill="white" /></clipPath><clipPath id="01-settings-clip-10"><rect x="72" y="653.78" width="50.63" height="20.8" rx="0" fill="white" /></clipPath><clipPath id="01-settings-clip-11"><rect x="11.02" y="400.63" width="163.63" height="19.56" rx="0" fill="white" /></clipPath><clipPath id="01-settings-clip-12"><rect x="0" y="0" width="430" height="684" rx="0" fill="white" /></clipPath></defs><rect x="0" y="0" width="430" height="684" rx="12" fill="transparent" /><rect x="0" y="0" width="430" height="684" rx="0" fill="rgb(0, 0, 0)" /><g clip-path="url(#01-settings-clip-12)"><g clip-path="url(#01-settings-clip-1)"><text x="32" y="40" fill="rgb(218, 218, 218)" font-family="&quot;??&quot;, &quot;??&quot;, &quot;??&quot;, ui-sans-serif, -apple-system, &quot;system-ui&quot;, system-ui, &quot;Segoe UI&quot;, &quot;Google Sans Flex&quot;, Roboto, &quot;Inter Variable&quot;, Inter, &quot;Apple Color Emoji&quot;, &quot;Segoe UI Emoji&quot;, &quot;Segoe UI Symbol&quot;, sans-serif" font-size="23.9872px" font-weight="700" font-style="normal" direction="ltr" unicode-bidi="embed" letter-spacing="0" textLength="157.84" lengthAdjust="spacing" xml:space="preserve">Callout Studio</text></g><g xmlns="http://www.w3.org/2000/svg" fill="none" stroke="rgb(179, 179, 179)" stroke-width="1.75px" stroke-linecap="round" stroke-linejoin="round" fill-rule="nonzero" clip-rule="nonzero" opacity="1" transform="matrix(0.8333333333333334 0 0 0.8333333333333334 374 21.578125)"><circle cx="12" cy="12" r="10" fill="none" stroke="rgb(179, 179, 179)" stroke-width="1.75px" stroke-linecap="round" stroke-linejoin="round" fill-rule="nonzero" clip-rule="nonzero" opacity="1"/><path d="M12 16v-4" fill="none" stroke="rgb(179, 179, 179)" stroke-width="1.75px" stroke-linecap="round" stroke-linejoin="round" fill-rule="nonzero" clip-rule="nonzero" opacity="1"/><path d="M12 8h.01" fill="none" stroke="rgb(179, 179, 179)" stroke-width="1.75px" stroke-linecap="round" stroke-linejoin="round" fill-rule="nonzero" clip-rule="nonzero" opacity="1"/></g><rect x="16" y="71.17" width="398" height="304.45" rx="0" fill="rgb(0, 0, 0)" /><rect x="16" y="187.63" width="398" height="48" rx="8" fill="rgb(30, 30, 30)" /><g xmlns="http://www.w3.org/2000/svg" fill="none" stroke="rgb(218, 218, 218)" stroke-width="1.75px" stroke-linecap="round" stroke-linejoin="round" fill-rule="nonzero" clip-rule="nonzero" opacity="1" transform="matrix(0.75 0 0 0.75 35 202.625)"><path d="M15 14c.2-1 .7-1.7 1.5-2.5 1-.9 1.5-2.2 1.5-3.5A6 6 0 0 0 6 8c0 1 .2 2.2 1.5 3.5.7.7 1.3 1.5 1.5 2.5" fill="none" stroke="rgb(218, 218, 218)" stroke-width="1.75px" stroke-linecap="round" stroke-linejoin="round" fill-rule="nonzero" clip-rule="nonzero" opacity="1"/><path d="M9 18h6" fill="none" stroke="rgb(218, 218, 218)" stroke-width="1.75px" stroke-linecap="round" stroke-linejoin="round" fill-rule="nonzero" clip-rule="nonzero" opacity="1"/><path d="M10 22h4" fill="none" stroke="rgb(218, 218, 218)" stroke-width="1.75px" stroke-linecap="round" stroke-linejoin="round" fill-rule="nonzero" clip-rule="nonzero" opacity="1"/></g><g clip-path="url(#01-settings-clip-2)"><text x="72" y="217.22" fill="rgb(218, 218, 218)" font-family="&quot;??&quot;, &quot;??&quot;, &quot;??&quot;, ui-sans-serif, -apple-system, &quot;system-ui&quot;, system-ui, &quot;Segoe UI&quot;, &quot;Google Sans Flex&quot;, Roboto, &quot;Inter Variable&quot;, Inter, &quot;Apple Color Emoji&quot;, &quot;Segoe UI Emoji&quot;, &quot;Segoe UI Symbol&quot;, sans-serif" font-size="16px" font-weight="600" font-style="normal" direction="ltr" unicode-bidi="embed" letter-spacing="0" textLength="32.48" lengthAdjust="spacing" xml:space="preserve">Idea</text></g><g xmlns="http://www.w3.org/2000/svg" fill="none" stroke="rgb(179, 179, 179)" stroke-width="1.75px" stroke-linecap="round" stroke-linejoin="round" fill-rule="nonzero" clip-rule="nonzero" opacity="1" transform="matrix(0.6666666666666666 0 0 0.6666666666666666 342 203.625)"><path d="M21.174 6.812a1 1 0 0 0-3.986-3.987L3.842 16.174a2 2 0 0 0-.5.83l-1.321 4.352a.5.5 0 0 0 .623.622l4.353-1.32a2 2 0 0 0 .83-.497z" fill="none" stroke="rgb(179, 179, 179)" stroke-width="1.75px" stroke-linecap="round" stroke-linejoin="round" fill-rule="nonzero" clip-rule="nonzero" opacity="1"/><path d="m15 5 4 4" fill="none" stroke="rgb(179, 179, 179)" stroke-width="1.75px" stroke-linecap="round" stroke-linejoin="round" fill-rule="nonzero" clip-rule="nonzero" opacity="1"/></g><g xmlns="http://www.w3.org/2000/svg" fill="none" stroke="rgb(179, 179, 179)" stroke-width="1.75px" stroke-linecap="round" stroke-linejoin="round" fill-rule="nonzero" clip-rule="nonzero" opacity="1" transform="matrix(0.6666666666666666 0 0 0.6666666666666666 378 203.625)"><circle cx="12" cy="12" r="1" fill="none" stroke="rgb(179, 179, 179)" stroke-width="1.75px" stroke-linecap="round" stroke-linejoin="round" fill-rule="nonzero" clip-rule="nonzero" opacity="1"/><circle cx="19" cy="12" r="1" fill="none" stroke="rgb(179, 179, 179)" stroke-width="1.75px" stroke-linecap="round" stroke-linejoin="round" fill-rule="nonzero" clip-rule="nonzero" opacity="1"/><circle cx="5" cy="12" r="1" fill="none" stroke="rgb(179, 179, 179)" stroke-width="1.75px" stroke-linecap="round" stroke-linejoin="round" fill-rule="nonzero" clip-rule="nonzero" opacity="1"/></g><rect x="16" y="237.63" width="398" height="48" rx="8" fill="rgb(30, 30, 30)" /><g xmlns="http://www.w3.org/2000/svg" fill="none" stroke="rgb(218, 218, 218)" stroke-width="1.75px" stroke-linecap="round" stroke-linejoin="round" fill-rule="nonzero" clip-rule="nonzero" opacity="1" transform="matrix(0.75 0 0 0.75 35 252.625)"><path d="M16 10a2 2 0 0 1-2 2H6.828a2 2 0 0 0-1.414.586l-2.202 2.202A.71.71 0 0 1 2 14.286V4a2 2 0 0 1 2-2h10a2 2 0 0 1 2 2z" fill="none" stroke="rgb(218, 218, 218)" stroke-width="1.75px" stroke-linecap="round" stroke-linejoin="round" fill-rule="nonzero" clip-rule="nonzero" opacity="1"/><path d="M20 9a2 2 0 0 1 2 2v10.286a.71.71 0 0 1-1.212.502l-2.202-2.202A2 2 0 0 0 17.172 19H10a2 2 0 0 1-2-2v-1" fill="none" stroke="rgb(218, 218, 218)" stroke-width="1.75px" stroke-linecap="round" stroke-linejoin="round" fill-rule="nonzero" clip-rule="nonzero" opacity="1"/></g><g clip-path="url(#01-settings-clip-3)"><text x="72" y="267.22" fill="rgb(218, 218, 218)" font-family="&quot;??&quot;, &quot;??&quot;, &quot;??&quot;, ui-sans-serif, -apple-system, &quot;system-ui&quot;, system-ui, &quot;Segoe UI&quot;, &quot;Google Sans Flex&quot;, Roboto, &quot;Inter Variable&quot;, Inter, &quot;Apple Color Emoji&quot;, &quot;Segoe UI Emoji&quot;, &quot;Segoe UI Symbol&quot;, sans-serif" font-size="16px" font-weight="600" font-style="normal" direction="ltr" unicode-bidi="embed" letter-spacing="0" textLength="61.71" lengthAdjust="spacing" xml:space="preserve">Meeting</text></g><g xmlns="http://www.w3.org/2000/svg" fill="none" stroke="rgb(179, 179, 179)" stroke-width="1.75px" stroke-linecap="round" stroke-linejoin="round" fill-rule="nonzero" clip-rule="nonzero" opacity="1" transform="matrix(0.6666666666666666 0 0 0.6666666666666666 342 253.625)"><path d="M21.174 6.812a1 1 0 0 0-3.986-3.987L3.842 16.174a2 2 0 0 0-.5.83l-1.321 4.352a.5.5 0 0 0 .623.622l4.353-1.32a2 2 0 0 0 .83-.497z" fill="none" stroke="rgb(179, 179, 179)" stroke-width="1.75px" stroke-linecap="round" stroke-linejoin="round" fill-rule="nonzero" clip-rule="nonzero" opacity="1"/><path d="m15 5 4 4" fill="none" stroke="rgb(179, 179, 179)" stroke-width="1.75px" stroke-linecap="round" stroke-linejoin="round" fill-rule="nonzero" clip-rule="nonzero" opacity="1"/></g><g xmlns="http://www.w3.org/2000/svg" fill="none" stroke="rgb(179, 179, 179)" stroke-width="1.75px" stroke-linecap="round" stroke-linejoin="round" fill-rule="nonzero" clip-rule="nonzero" opacity="1" transform="matrix(0.6666666666666666 0 0 0.6666666666666666 378 253.625)"><circle cx="12" cy="12" r="1" fill="none" stroke="rgb(179, 179, 179)" stroke-width="1.75px" stroke-linecap="round" stroke-linejoin="round" fill-rule="nonzero" clip-rule="nonzero" opacity="1"/><circle cx="19" cy="12" r="1" fill="none" stroke="rgb(179, 179, 179)" stroke-width="1.75px" stroke-linecap="round" stroke-linejoin="round" fill-rule="nonzero" clip-rule="nonzero" opacity="1"/><circle cx="5" cy="12" r="1" fill="none" stroke="rgb(179, 179, 179)" stroke-width="1.75px" stroke-linecap="round" stroke-linejoin="round" fill-rule="nonzero" clip-rule="nonzero" opacity="1"/></g><rect x="16" y="287.63" width="398" height="48" rx="8" fill="rgb(30, 30, 30)" /><g xmlns="http://www.w3.org/2000/svg" fill="none" stroke="rgb(218, 218, 218)" stroke-width="1.75px" stroke-linecap="round" stroke-linejoin="round" fill-rule="nonzero" clip-rule="nonzero" opacity="1" transform="matrix(0.75 0 0 0.75 35 302.625)"><path d="m10.065 12.493-6.18 1.318a.934.934 0 0 1-1.108-.702l-.537-2.15a1.07 1.07 0 0 1 .691-1.265l13.504-4.44" fill="none" stroke="rgb(218, 218, 218)" stroke-width="1.75px" stroke-linecap="round" stroke-linejoin="round" fill-rule="nonzero" clip-rule="nonzero" opacity="1"/><path d="m13.56 11.747 4.332-.924" fill="none" stroke="rgb(218, 218, 218)" stroke-width="1.75px" stroke-linecap="round" stroke-linejoin="round" fill-rule="nonzero" clip-rule="nonzero" opacity="1"/><path d="m16 21-3.105-6.21" fill="none" stroke="rgb(218, 218, 218)" stroke-width="1.75px" stroke-linecap="round" stroke-linejoin="round" fill-rule="nonzero" clip-rule="nonzero" opacity="1"/><path d="M16.485 5.94a2 2 0 0 1 1.455-2.425l1.09-.272a1 1 0 0 1 1.212.727l1.515 6.06a1 1 0 0 1-.727 1.213l-1.09.272a2 2 0 0 1-2.425-1.455z" fill="none" stroke="rgb(218, 218, 218)" stroke-width="1.75px" stroke-linecap="round" stroke-linejoin="round" fill-rule="nonzero" clip-rule="nonzero" opacity="1"/><path d="m6.158 8.633 1.114 4.456" fill="none" stroke="rgb(218, 218, 218)" stroke-width="1.75px" stroke-linecap="round" stroke-linejoin="round" fill-rule="nonzero" clip-rule="nonzero" opacity="1"/><path d="m8 21 3.105-6.21" fill="none" stroke="rgb(218, 218, 218)" stroke-width="1.75px" stroke-linecap="round" stroke-linejoin="round" fill-rule="nonzero" clip-rule="nonzero" opacity="1"/><circle cx="12" cy="13" r="2" fill="none" stroke="rgb(218, 218, 218)" stroke-width="1.75px" stroke-linecap="round" stroke-linejoin="round" fill-rule="nonzero" clip-rule="nonzero" opacity="1"/></g><g clip-path="url(#01-settings-clip-4)"><text x="72" y="317.22" fill="rgb(218, 218, 218)" font-family="&quot;??&quot;, &quot;??&quot;, &quot;??&quot;, ui-sans-serif, -apple-system, &quot;system-ui&quot;, system-ui, &quot;Segoe UI&quot;, &quot;Google Sans Flex&quot;, Roboto, &quot;Inter Variable&quot;, Inter, &quot;Apple Color Emoji&quot;, &quot;Segoe UI Emoji&quot;, &quot;Segoe UI Symbol&quot;, sans-serif" font-size="16px" font-weight="600" font-style="normal" direction="ltr" unicode-bidi="embed" letter-spacing="0" textLength="70.71" lengthAdjust="spacing" xml:space="preserve">Research</text></g><g xmlns="http://www.w3.org/2000/svg" fill="none" stroke="rgb(179, 179, 179)" stroke-width="1.75px" stroke-linecap="round" stroke-linejoin="round" fill-rule="nonzero" clip-rule="nonzero" opacity="1" transform="matrix(0.6666666666666666 0 0 0.6666666666666666 342 303.625)"><path d="M21.174 6.812a1 1 0 0 0-3.986-3.987L3.842 16.174a2 2 0 0 0-.5.83l-1.321 4.352a.5.5 0 0 0 .623.622l4.353-1.32a2 2 0 0 0 .83-.497z" fill="none" stroke="rgb(179, 179, 179)" stroke-width="1.75px" stroke-linecap="round" stroke-linejoin="round" fill-rule="nonzero" clip-rule="nonzero" opacity="1"/><path d="m15 5 4 4" fill="none" stroke="rgb(179, 179, 179)" stroke-width="1.75px" stroke-linecap="round" stroke-linejoin="round" fill-rule="nonzero" clip-rule="nonzero" opacity="1"/></g><g xmlns="http://www.w3.org/2000/svg" fill="none" stroke="rgb(179, 179, 179)" stroke-width="1.75px" stroke-linecap="round" stroke-linejoin="round" fill-rule="nonzero" clip-rule="nonzero" opacity="1" transform="matrix(0.6666666666666666 0 0 0.6666666666666666 378 303.625)"><circle cx="12" cy="12" r="1" fill="none" stroke="rgb(179, 179, 179)" stroke-width="1.75px" stroke-linecap="round" stroke-linejoin="round" fill-rule="nonzero" clip-rule="nonzero" opacity="1"/><circle cx="19" cy="12" r="1" fill="none" stroke="rgb(179, 179, 179)" stroke-width="1.75px" stroke-linecap="round" stroke-linejoin="round" fill-rule="nonzero" clip-rule="nonzero" opacity="1"/><circle cx="5" cy="12" r="1" fill="none" stroke="rgb(179, 179, 179)" stroke-width="1.75px" stroke-linecap="round" stroke-linejoin="round" fill-rule="nonzero" clip-rule="nonzero" opacity="1"/></g><rect x="16" y="71.17" width="398" height="116.45" rx="0" fill="rgb(0, 0, 0)" /><g clip-path="url(#01-settings-clip-5)"><g xmlns="http://www.w3.org/2000/svg" fill="none" stroke="rgb(179, 179, 179)" stroke-width="2.5px" stroke-linecap="round" stroke-linejoin="round" fill-rule="nonzero" clip-rule="nonzero" opacity="1" transform="matrix(0 0.6555989583333334 -0.6555989583333334 0 26 97.53125)"><path d="m9 18 6-6-6-6" fill="none" stroke="rgb(179, 179, 179)" stroke-width="2.5px" stroke-linecap="round" stroke-linejoin="round" fill-rule="nonzero" clip-rule="nonzero" opacity="1"/></g><text x="32" y="111.17" fill="rgb(179, 179, 179)" font-family="&quot;??&quot;, &quot;??&quot;, &quot;??&quot;, ui-sans-serif, -apple-system, &quot;system-ui&quot;, system-ui, &quot;Segoe UI&quot;, &quot;Google Sans Flex&quot;, Roboto, &quot;Inter Variable&quot;, Inter, &quot;Apple Color Emoji&quot;, &quot;Segoe UI Emoji&quot;, &quot;Segoe UI Symbol&quot;, sans-serif" font-size="15.7416px" font-weight="600" font-style="normal" direction="ltr" unicode-bidi="embed" letter-spacing="0" textLength="122.75" lengthAdjust="spacing" xml:space="preserve">My callout types</text><text x="158.75" y="111.17" fill="rgb(102, 102, 102)" font-family="&quot;??&quot;, &quot;??&quot;, &quot;??&quot;, ui-sans-serif, -apple-system, &quot;system-ui&quot;, system-ui, &quot;Segoe UI&quot;, &quot;Google Sans Flex&quot;, Roboto, &quot;Inter Variable&quot;, Inter, &quot;Apple Color Emoji&quot;, &quot;Segoe UI Emoji&quot;, &quot;Segoe UI Symbol&quot;, sans-serif" font-size="13.3804px" font-weight="500" font-style="normal" direction="ltr" unicode-bidi="embed" letter-spacing="0" textLength="22.5" lengthAdjust="spacing" xml:space="preserve"> (3)</text></g><rect x="111.44" y="123.63" width="142.86" height="44" rx="22" fill="rgb(51, 51, 51)" /><rect x="111.94" y="124.13" width="141.86" height="43" rx="21.5" fill="none" stroke="rgb(51, 51, 51)" stroke-width="1"/><text x="124.44" y="151.13" fill="rgb(218, 218, 218)" font-family="&quot;??&quot;, &quot;??&quot;, &quot;??&quot;, ui-sans-serif, -apple-system, &quot;system-ui&quot;, system-ui, &quot;Segoe UI&quot;, &quot;Google Sans Flex&quot;, Roboto, &quot;Inter Variable&quot;, Inter, &quot;Apple Color Emoji&quot;, &quot;Segoe UI Emoji&quot;, &quot;Segoe UI Symbol&quot;, sans-serif" font-size="14.992px" font-weight="500" font-style="normal" direction="ltr" unicode-bidi="embed" letter-spacing="0" textLength="116.85" lengthAdjust="spacing" xml:space="preserve">Scan for callouts</text><rect x="262.3" y="123.63" width="135.7" height="44" rx="22" fill="rgb(138, 92, 245)" /><text x="274.3" y="151.13" fill="rgb(255, 255, 255)" font-family="&quot;??&quot;, &quot;??&quot;, &quot;??&quot;, ui-sans-serif, -apple-system, &quot;system-ui&quot;, system-ui, &quot;Segoe UI&quot;, &quot;Google Sans Flex&quot;, Roboto, &quot;Inter Variable&quot;, Inter, &quot;Apple Color Emoji&quot;, &quot;Segoe UI Emoji&quot;, &quot;Segoe UI Symbol&quot;, sans-serif" font-size="14.992px" font-weight="500" font-style="normal" direction="ltr" unicode-bidi="embed" letter-spacing="0" textLength="111.7" lengthAdjust="spacing" xml:space="preserve">Add new callout</text><rect x="16" y="375.63" width="398" height="712.56" rx="0" fill="rgb(0, 0, 0)" /><rect x="16" y="375.63" width="398" height="1" rx="0" fill="rgb(51, 51, 51)" /><rect x="16" y="440.19" width="398" height="48" rx="8" fill="rgb(30, 30, 30)" /><g xmlns="http://www.w3.org/2000/svg" fill="none" stroke="rgb(218, 218, 218)" stroke-width="1.75px" stroke-linecap="round" stroke-linejoin="round" fill-rule="nonzero" clip-rule="nonzero" opacity="1" transform="matrix(0.75 0 0 0.75 35 455.1875)"><rect x="8" y="2" width="8" height="4" rx="1" ry="1" fill="none" stroke="rgb(218, 218, 218)" stroke-width="1.75px" stroke-linecap="round" stroke-linejoin="round" fill-rule="nonzero" clip-rule="nonzero" opacity="1"/><path d="M16 4h2a2 2 0 0 1 2 2v14a2 2 0 0 1-2 2H6a2 2 0 0 1-2-2V6a2 2 0 0 1 2-2h2" fill="none" stroke="rgb(218, 218, 218)" stroke-width="1.75px" stroke-linecap="round" stroke-linejoin="round" fill-rule="nonzero" clip-rule="nonzero" opacity="1"/><path d="M12 11h4" fill="none" stroke="rgb(218, 218, 218)" stroke-width="1.75px" stroke-linecap="round" stroke-linejoin="round" fill-rule="nonzero" clip-rule="nonzero" opacity="1"/><path d="M12 16h4" fill="none" stroke="rgb(218, 218, 218)" stroke-width="1.75px" stroke-linecap="round" stroke-linejoin="round" fill-rule="nonzero" clip-rule="nonzero" opacity="1"/><path d="M8 11h.01" fill="none" stroke="rgb(218, 218, 218)" stroke-width="1.75px" stroke-linecap="round" stroke-linejoin="round" fill-rule="nonzero" clip-rule="nonzero" opacity="1"/><path d="M8 16h.01" fill="none" stroke="rgb(218, 218, 218)" stroke-width="1.75px" stroke-linecap="round" stroke-linejoin="round" fill-rule="nonzero" clip-rule="nonzero" opacity="1"/></g><g clip-path="url(#01-settings-clip-6)"><text x="72" y="469.78" fill="rgb(218, 218, 218)" font-family="&quot;??&quot;, &quot;??&quot;, &quot;??&quot;, ui-sans-serif, -apple-system, &quot;system-ui&quot;, system-ui, &quot;Segoe UI&quot;, &quot;Google Sans Flex&quot;, Roboto, &quot;Inter Variable&quot;, Inter, &quot;Apple Color Emoji&quot;, &quot;Segoe UI Emoji&quot;, &quot;Segoe UI Symbol&quot;, sans-serif" font-size="16px" font-weight="600" font-style="normal" direction="ltr" unicode-bidi="embed" letter-spacing="0" textLength="65.75" lengthAdjust="spacing" xml:space="preserve">Abstract</text></g><g xmlns="http://www.w3.org/2000/svg" fill="none" stroke="rgb(179, 179, 179)" stroke-width="1.75px" stroke-linecap="round" stroke-linejoin="round" fill-rule="nonzero" clip-rule="nonzero" opacity="1" transform="matrix(0.6666666666666666 0 0 0.6666666666666666 342 456.1875)"><path d="M21.174 6.812a1 1 0 0 0-3.986-3.987L3.842 16.174a2 2 0 0 0-.5.83l-1.321 4.352a.5.5 0 0 0 .623.622l4.353-1.32a2 2 0 0 0 .83-.497z" fill="none" stroke="rgb(179, 179, 179)" stroke-width="1.75px" stroke-linecap="round" stroke-linejoin="round" fill-rule="nonzero" clip-rule="nonzero" opacity="1"/><path d="m15 5 4 4" fill="none" stroke="rgb(179, 179, 179)" stroke-width="1.75px" stroke-linecap="round" stroke-linejoin="round" fill-rule="nonzero" clip-rule="nonzero" opacity="1"/></g><g xmlns="http://www.w3.org/2000/svg" fill="none" stroke="rgb(179, 179, 179)" stroke-width="1.75px" stroke-linecap="round" stroke-linejoin="round" fill-rule="nonzero" clip-rule="nonzero" opacity="1" transform="matrix(0.6666666666666666 0 0 0.6666666666666666 378 456.1875)"><circle cx="12" cy="12" r="1" fill="none" stroke="rgb(179, 179, 179)" stroke-width="1.75px" stroke-linecap="round" stroke-linejoin="round" fill-rule="nonzero" clip-rule="nonzero" opacity="1"/><circle cx="19" cy="12" r="1" fill="none" stroke="rgb(179, 179, 179)" stroke-width="1.75px" stroke-linecap="round" stroke-linejoin="round" fill-rule="nonzero" clip-rule="nonzero" opacity="1"/><circle cx="5" cy="12" r="1" fill="none" stroke="rgb(179, 179, 179)" stroke-width="1.75px" stroke-linecap="round" stroke-linejoin="round" fill-rule="nonzero" clip-rule="nonzero" opacity="1"/></g><rect x="16" y="490.19" width="398" height="48" rx="8" fill="rgb(30, 30, 30)" /><g xmlns="http://www.w3.org/2000/svg" fill="none" stroke="rgb(218, 218, 218)" stroke-width="1.75px" stroke-linecap="round" stroke-linejoin="round" fill-rule="nonzero" clip-rule="nonzero" opacity="1" transform="matrix(0.75 0 0 0.75 35 505.1875)"><path d="M12 20v-9" fill="none" stroke="rgb(218, 218, 218)" stroke-width="1.75px" stroke-linecap="round" stroke-linejoin="round" fill-rule="nonzero" clip-rule="nonzero" opacity="1"/><path d="M14 7a4 4 0 0 1 4 4v3a6 6 0 0 1-12 0v-3a4 4 0 0 1 4-4z" fill="none" stroke="rgb(218, 218, 218)" stroke-width="1.75px" stroke-linecap="round" stroke-linejoin="round" fill-rule="nonzero" clip-rule="nonzero" opacity="1"/><path d="M14.12 3.88 16 2" fill="none" stroke="rgb(218, 218, 218)" stroke-width="1.75px" stroke-linecap="round" stroke-linejoin="round" fill-rule="nonzero" clip-rule="nonzero" opacity="1"/><path d="M21 21a4 4 0 0 0-3.81-4" fill="none" stroke="rgb(218, 218, 218)" stroke-width="1.75px" stroke-linecap="round" stroke-linejoin="round" fill-rule="nonzero" clip-rule="nonzero" opacity="1"/><path d="M21 5a4 4 0 0 1-3.55 3.97" fill="none" stroke="rgb(218, 218, 218)" stroke-width="1.75px" stroke-linecap="round" stroke-linejoin="round" fill-rule="nonzero" clip-rule="nonzero" opacity="1"/><path d="M22 13h-4" fill="none" stroke="rgb(218, 218, 218)" stroke-width="1.75px" stroke-linecap="round" stroke-linejoin="round" fill-rule="nonzero" clip-rule="nonzero" opacity="1"/><path d="M3 21a4 4 0 0 1 3.81-4" fill="none" stroke="rgb(218, 218, 218)" stroke-width="1.75px" stroke-linecap="round" stroke-linejoin="round" fill-rule="nonzero" clip-rule="nonzero" opacity="1"/><path d="M3 5a4 4 0 0 0 3.55 3.97" fill="none" stroke="rgb(218, 218, 218)" stroke-width="1.75px" stroke-linecap="round" stroke-linejoin="round" fill-rule="nonzero" clip-rule="nonzero" opacity="1"/><path d="M6 13H2" fill="none" stroke="rgb(218, 218, 218)" stroke-width="1.75px" stroke-linecap="round" stroke-linejoin="round" fill-rule="nonzero" clip-rule="nonzero" opacity="1"/><path d="m8 2 1.88 1.88" fill="none" stroke="rgb(218, 218, 218)" stroke-width="1.75px" stroke-linecap="round" stroke-linejoin="round" fill-rule="nonzero" clip-rule="nonzero" opacity="1"/><path d="M9 7.13V6a3 3 0 1 1 6 0v1.13" fill="none" stroke="rgb(218, 218, 218)" stroke-width="1.75px" stroke-linecap="round" stroke-linejoin="round" fill-rule="nonzero" clip-rule="nonzero" opacity="1"/></g><g clip-path="url(#01-settings-clip-7)"><text x="72" y="519.78" fill="rgb(218, 218, 218)" font-family="&quot;??&quot;, &quot;??&quot;, &quot;??&quot;, ui-sans-serif, -apple-system, &quot;system-ui&quot;, system-ui, &quot;Segoe UI&quot;, &quot;Google Sans Flex&quot;, Roboto, &quot;Inter Variable&quot;, Inter, &quot;Apple Color Emoji&quot;, &quot;Segoe UI Emoji&quot;, &quot;Segoe UI Symbol&quot;, sans-serif" font-size="16px" font-weight="600" font-style="normal" direction="ltr" unicode-bidi="embed" letter-spacing="0" textLength="29.91" lengthAdjust="spacing" xml:space="preserve">Bug</text></g><g xmlns="http://www.w3.org/2000/svg" fill="none" stroke="rgb(179, 179, 179)" stroke-width="1.75px" stroke-linecap="round" stroke-linejoin="round" fill-rule="nonzero" clip-rule="nonzero" opacity="1" transform="matrix(0.6666666666666666 0 0 0.6666666666666666 342 506.1875)"><path d="M21.174 6.812a1 1 0 0 0-3.986-3.987L3.842 16.174a2 2 0 0 0-.5.83l-1.321 4.352a.5.5 0 0 0 .623.622l4.353-1.32a2 2 0 0 0 .83-.497z" fill="none" stroke="rgb(179, 179, 179)" stroke-width="1.75px" stroke-linecap="round" stroke-linejoin="round" fill-rule="nonzero" clip-rule="nonzero" opacity="1"/><path d="m15 5 4 4" fill="none" stroke="rgb(179, 179, 179)" stroke-width="1.75px" stroke-linecap="round" stroke-linejoin="round" fill-rule="nonzero" clip-rule="nonzero" opacity="1"/></g><g xmlns="http://www.w3.org/2000/svg" fill="none" stroke="rgb(179, 179, 179)" stroke-width="1.75px" stroke-linecap="round" stroke-linejoin="round" fill-rule="nonzero" clip-rule="nonzero" opacity="1" transform="matrix(0.6666666666666666 0 0 0.6666666666666666 378 506.1875)"><circle cx="12" cy="12" r="1" fill="none" stroke="rgb(179, 179, 179)" stroke-width="1.75px" stroke-linecap="round" stroke-linejoin="round" fill-rule="nonzero" clip-rule="nonzero" opacity="1"/><circle cx="19" cy="12" r="1" fill="none" stroke="rgb(179, 179, 179)" stroke-width="1.75px" stroke-linecap="round" stroke-linejoin="round" fill-rule="nonzero" clip-rule="nonzero" opacity="1"/><circle cx="5" cy="12" r="1" fill="none" stroke="rgb(179, 179, 179)" stroke-width="1.75px" stroke-linecap="round" stroke-linejoin="round" fill-rule="nonzero" clip-rule="nonzero" opacity="1"/></g><rect x="16" y="540.19" width="398" height="48" rx="8" fill="rgb(30, 30, 30)" /><g xmlns="http://www.w3.org/2000/svg" fill="none" stroke="rgb(218, 218, 218)" stroke-width="1.75px" stroke-linecap="round" stroke-linejoin="round" fill-rule="nonzero" clip-rule="nonzero" opacity="1" transform="matrix(0.75 0 0 0.75 35 555.1875)"><path d="M4 14a1 1 0 0 1-.78-1.63l9.9-10.2a.5.5 0 0 1 .86.46l-1.92 6.02A1 1 0 0 0 13 10h7a1 1 0 0 1 .78 1.63l-9.9 10.2a.5.5 0 0 1-.86-.46l1.92-6.02A1 1 0 0 0 11 14z" fill="none" stroke="rgb(218, 218, 218)" stroke-width="1.75px" stroke-linecap="round" stroke-linejoin="round" fill-rule="nonzero" clip-rule="nonzero" opacity="1"/></g><g clip-path="url(#01-settings-clip-8)"><text x="72" y="569.78" fill="rgb(218, 218, 218)" font-family="&quot;??&quot;, &quot;??&quot;, &quot;??&quot;, ui-sans-serif, -apple-system, &quot;system-ui&quot;, system-ui, &quot;Segoe UI&quot;, &quot;Google Sans Flex&quot;, Roboto, &quot;Inter Variable&quot;, Inter, &quot;Apple Color Emoji&quot;, &quot;Segoe UI Emoji&quot;, &quot;Segoe UI Symbol&quot;, sans-serif" font-size="16px" font-weight="600" font-style="normal" direction="ltr" unicode-bidi="embed" letter-spacing="0" textLength="55.22" lengthAdjust="spacing" xml:space="preserve">Danger</text></g><g xmlns="http://www.w3.org/2000/svg" fill="none" stroke="rgb(179, 179, 179)" stroke-width="1.75px" stroke-linecap="round" stroke-linejoin="round" fill-rule="nonzero" clip-rule="nonzero" opacity="1" transform="matrix(0.6666666666666666 0 0 0.6666666666666666 342 556.1875)"><path d="M21.174 6.812a1 1 0 0 0-3.986-3.987L3.842 16.174a2 2 0 0 0-.5.83l-1.321 4.352a.5.5 0 0 0 .623.622l4.353-1.32a2 2 0 0 0 .83-.497z" fill="none" stroke="rgb(179, 179, 179)" stroke-width="1.75px" stroke-linecap="round" stroke-linejoin="round" fill-rule="nonzero" clip-rule="nonzero" opacity="1"/><path d="m15 5 4 4" fill="none" stroke="rgb(179, 179, 179)" stroke-width="1.75px" stroke-linecap="round" stroke-linejoin="round" fill-rule="nonzero" clip-rule="nonzero" opacity="1"/></g><g xmlns="http://www.w3.org/2000/svg" fill="none" stroke="rgb(179, 179, 179)" stroke-width="1.75px" stroke-linecap="round" stroke-linejoin="round" fill-rule="nonzero" clip-rule="nonzero" opacity="1" transform="matrix(0.6666666666666666 0 0 0.6666666666666666 378 556.1875)"><circle cx="12" cy="12" r="1" fill="none" stroke="rgb(179, 179, 179)" stroke-width="1.75px" stroke-linecap="round" stroke-linejoin="round" fill-rule="nonzero" clip-rule="nonzero" opacity="1"/><circle cx="19" cy="12" r="1" fill="none" stroke="rgb(179, 179, 179)" stroke-width="1.75px" stroke-linecap="round" stroke-linejoin="round" fill-rule="nonzero" clip-rule="nonzero" opacity="1"/><circle cx="5" cy="12" r="1" fill="none" stroke="rgb(179, 179, 179)" stroke-width="1.75px" stroke-linecap="round" stroke-linejoin="round" fill-rule="nonzero" clip-rule="nonzero" opacity="1"/></g><rect x="16" y="590.19" width="398" height="48" rx="8" fill="rgb(30, 30, 30)" /><g xmlns="http://www.w3.org/2000/svg" fill="none" stroke="rgb(218, 218, 218)" stroke-width="1.75px" stroke-linecap="round" stroke-linejoin="round" fill-rule="nonzero" clip-rule="nonzero" opacity="1" transform="matrix(0.75 0 0 0.75 35 605.1875)"><path d="M3 5h.01" fill="none" stroke="rgb(218, 218, 218)" stroke-width="1.75px" stroke-linecap="round" stroke-linejoin="round" fill-rule="nonzero" clip-rule="nonzero" opacity="1"/><path d="M3 12h.01" fill="none" stroke="rgb(218, 218, 218)" stroke-width="1.75px" stroke-linecap="round" stroke-linejoin="round" fill-rule="nonzero" clip-rule="nonzero" opacity="1"/><path d="M3 19h.01" fill="none" stroke="rgb(218, 218, 218)" stroke-width="1.75px" stroke-linecap="round" stroke-linejoin="round" fill-rule="nonzero" clip-rule="nonzero" opacity="1"/><path d="M8 5h13" fill="none" stroke="rgb(218, 218, 218)" stroke-width="1.75px" stroke-linecap="round" stroke-linejoin="round" fill-rule="nonzero" clip-rule="nonzero" opacity="1"/><path d="M8 12h13" fill="none" stroke="rgb(218, 218, 218)" stroke-width="1.75px" stroke-linecap="round" stroke-linejoin="round" fill-rule="nonzero" clip-rule="nonzero" opacity="1"/><path d="M8 19h13" fill="none" stroke="rgb(218, 218, 218)" stroke-width="1.75px" stroke-linecap="round" stroke-linejoin="round" fill-rule="nonzero" clip-rule="nonzero" opacity="1"/></g><g clip-path="url(#01-settings-clip-9)"><text x="72" y="619.78" fill="rgb(218, 218, 218)" font-family="&quot;??&quot;, &quot;??&quot;, &quot;??&quot;, ui-sans-serif, -apple-system, &quot;system-ui&quot;, system-ui, &quot;Segoe UI&quot;, &quot;Google Sans Flex&quot;, Roboto, &quot;Inter Variable&quot;, Inter, &quot;Apple Color Emoji&quot;, &quot;Segoe UI Emoji&quot;, &quot;Segoe UI Symbol&quot;, sans-serif" font-size="16px" font-weight="600" font-style="normal" direction="ltr" unicode-bidi="embed" letter-spacing="0" textLength="64.47" lengthAdjust="spacing" xml:space="preserve">Example</text></g><g xmlns="http://www.w3.org/2000/svg" fill="none" stroke="rgb(179, 179, 179)" stroke-width="1.75px" stroke-linecap="round" stroke-linejoin="round" fill-rule="nonzero" clip-rule="nonzero" opacity="1" transform="matrix(0.6666666666666666 0 0 0.6666666666666666 342 606.1875)"><path d="M21.174 6.812a1 1 0 0 0-3.986-3.987L3.842 16.174a2 2 0 0 0-.5.83l-1.321 4.352a.5.5 0 0 0 .623.622l4.353-1.32a2 2 0 0 0 .83-.497z" fill="none" stroke="rgb(179, 179, 179)" stroke-width="1.75px" stroke-linecap="round" stroke-linejoin="round" fill-rule="nonzero" clip-rule="nonzero" opacity="1"/><path d="m15 5 4 4" fill="none" stroke="rgb(179, 179, 179)" stroke-width="1.75px" stroke-linecap="round" stroke-linejoin="round" fill-rule="nonzero" clip-rule="nonzero" opacity="1"/></g><g xmlns="http://www.w3.org/2000/svg" fill="none" stroke="rgb(179, 179, 179)" stroke-width="1.75px" stroke-linecap="round" stroke-linejoin="round" fill-rule="nonzero" clip-rule="nonzero" opacity="1" transform="matrix(0.6666666666666666 0 0 0.6666666666666666 378 606.1875)"><circle cx="12" cy="12" r="1" fill="none" stroke="rgb(179, 179, 179)" stroke-width="1.75px" stroke-linecap="round" stroke-linejoin="round" fill-rule="nonzero" clip-rule="nonzero" opacity="1"/><circle cx="19" cy="12" r="1" fill="none" stroke="rgb(179, 179, 179)" stroke-width="1.75px" stroke-linecap="round" stroke-linejoin="round" fill-rule="nonzero" clip-rule="nonzero" opacity="1"/><circle cx="5" cy="12" r="1" fill="none" stroke="rgb(179, 179, 179)" stroke-width="1.75px" stroke-linecap="round" stroke-linejoin="round" fill-rule="nonzero" clip-rule="nonzero" opacity="1"/></g><rect x="16" y="640.19" width="398" height="48" rx="8" fill="rgb(30, 30, 30)" /><g xmlns="http://www.w3.org/2000/svg" fill="none" stroke="rgb(218, 218, 218)" stroke-width="1.75px" stroke-linecap="round" stroke-linejoin="round" fill-rule="nonzero" clip-rule="nonzero" opacity="1" transform="matrix(0.75 0 0 0.75 35 655.1875)"><path d="M18 6 6 18" fill="none" stroke="rgb(218, 218, 218)" stroke-width="1.75px" stroke-linecap="round" stroke-linejoin="round" fill-rule="nonzero" clip-rule="nonzero" opacity="1"/><path d="m6 6 12 12" fill="none" stroke="rgb(218, 218, 218)" stroke-width="1.75px" stroke-linecap="round" stroke-linejoin="round" fill-rule="nonzero" clip-rule="nonzero" opacity="1"/></g><g clip-path="url(#01-settings-clip-10)"><text x="72" y="669.78" fill="rgb(218, 218, 218)" font-family="&quot;??&quot;, &quot;??&quot;, &quot;??&quot;, ui-sans-serif, -apple-system, &quot;system-ui&quot;, system-ui, &quot;Segoe UI&quot;, &quot;Google Sans Flex&quot;, Roboto, &quot;Inter Variable&quot;, Inter, &quot;Apple Color Emoji&quot;, &quot;Segoe UI Emoji&quot;, &quot;Segoe UI Symbol&quot;, sans-serif" font-size="16px" font-weight="600" font-style="normal" direction="ltr" unicode-bidi="embed" letter-spacing="0" textLength="50.63" lengthAdjust="spacing" xml:space="preserve">Failure</text></g><g xmlns="http://www.w3.org/2000/svg" fill="none" stroke="rgb(179, 179, 179)" stroke-width="1.75px" stroke-linecap="round" stroke-linejoin="round" fill-rule="nonzero" clip-rule="nonzero" opacity="1" transform="matrix(0.6666666666666666 0 0 0.6666666666666666 342 656.1875)"><path d="M21.174 6.812a1 1 0 0 0-3.986-3.987L3.842 16.174a2 2 0 0 0-.5.83l-1.321 4.352a.5.5 0 0 0 .623.622l4.353-1.32a2 2 0 0 0 .83-.497z" fill="none" stroke="rgb(179, 179, 179)" stroke-width="1.75px" stroke-linecap="round" stroke-linejoin="round" fill-rule="nonzero" clip-rule="nonzero" opacity="1"/><path d="m15 5 4 4" fill="none" stroke="rgb(179, 179, 179)" stroke-width="1.75px" stroke-linecap="round" stroke-linejoin="round" fill-rule="nonzero" clip-rule="nonzero" opacity="1"/></g><g xmlns="http://www.w3.org/2000/svg" fill="none" stroke="rgb(179, 179, 179)" stroke-width="1.75px" stroke-linecap="round" stroke-linejoin="round" fill-rule="nonzero" clip-rule="nonzero" opacity="1" transform="matrix(0.6666666666666666 0 0 0.6666666666666666 378 656.1875)"><circle cx="12" cy="12" r="1" fill="none" stroke="rgb(179, 179, 179)" stroke-width="1.75px" stroke-linecap="round" stroke-linejoin="round" fill-rule="nonzero" clip-rule="nonzero" opacity="1"/><circle cx="19" cy="12" r="1" fill="none" stroke="rgb(179, 179, 179)" stroke-width="1.75px" stroke-linecap="round" stroke-linejoin="round" fill-rule="nonzero" clip-rule="nonzero" opacity="1"/><circle cx="5" cy="12" r="1" fill="none" stroke="rgb(179, 179, 179)" stroke-width="1.75px" stroke-linecap="round" stroke-linejoin="round" fill-rule="nonzero" clip-rule="nonzero" opacity="1"/></g><rect x="16" y="376.63" width="398" height="63.56" rx="0" fill="rgb(0, 0, 0)" /><g clip-path="url(#01-settings-clip-11)"><g xmlns="http://www.w3.org/2000/svg" fill="none" stroke="rgb(179, 179, 179)" stroke-width="2.5px" stroke-linecap="round" stroke-linejoin="round" fill-rule="nonzero" clip-rule="nonzero" opacity="1" transform="matrix(0 0.6243489583333334 -0.6243489583333334 0 26 402.90625)"><path d="m9 18 6-6-6-6" fill="none" stroke="rgb(179, 179, 179)" stroke-width="2.5px" stroke-linecap="round" stroke-linejoin="round" fill-rule="nonzero" clip-rule="nonzero" opacity="1"/></g><text x="32" y="415.63" fill="rgb(179, 179, 179)" font-family="&quot;??&quot;, &quot;??&quot;, &quot;??&quot;, ui-sans-serif, -apple-system, &quot;system-ui&quot;, system-ui, &quot;Segoe UI&quot;, &quot;Google Sans Flex&quot;, Roboto, &quot;Inter Variable&quot;, Inter, &quot;Apple Color Emoji&quot;, &quot;Segoe UI Emoji&quot;, &quot;Segoe UI Symbol&quot;, sans-serif" font-size="14.992px" font-weight="500" font-style="normal" direction="ltr" unicode-bidi="embed" letter-spacing="0" textLength="109.09" lengthAdjust="spacing" xml:space="preserve">Built-in callouts</text><text x="144.91" y="415.63" fill="rgb(102, 102, 102)" font-family="&quot;??&quot;, &quot;??&quot;, &quot;??&quot;, ui-sans-serif, -apple-system, &quot;system-ui&quot;, system-ui, &quot;Segoe UI&quot;, &quot;Google Sans Flex&quot;, Roboto, &quot;Inter Variable&quot;, Inter, &quot;Apple Color Emoji&quot;, &quot;Segoe UI Emoji&quot;, &quot;Segoe UI Symbol&quot;, sans-serif" font-size="12.7432px" font-weight="500" font-style="normal" direction="ltr" unicode-bidi="embed" letter-spacing="0" textLength="29.74" lengthAdjust="spacing" xml:space="preserve"> (13)</text></g></g></g><rect x="860.25" y="256" width="4" height="1297.8" rx="2" fill="#39363D" /><rect x="860.25" y="256" width="4" height="775.9573426573426" rx="2" fill="#6D6479" /></g></svg>
