<svg xmlns="http://www.w3.org/2000/svg" width="233" height="166" viewBox="0 0 233 166" role="img" aria-labelledby="title description"><title id="title">Saved color palettes</title><desc id="description">The production saved-palettes list shows Coral with a solid tint, Mint glass with a transparent checkerboard, and Twilight with violet-blue gradient stops. Native color circles and pencil/delete actions use installed Obsidian styles. All palette data is synthetic and offline.</desc><defs><clipPath id="clip-1"><rect x="48.81" y="15.91" width="114.19" height="18.19" rx="0" fill="white" /></clipPath><clipPath id="clip-2"><rect x="20.81" y="74" width="18" height="18" rx="50" fill="white" /></clipPath><clipPath id="clip-3"><rect x="48.81" y="73.91" width="114.19" height="18.19" rx="0" fill="white" /></clipPath><clipPath id="clip-4"><rect x="59.63" y="131.91" width="103.38" height="18.19" rx="0" fill="white" /></clipPath></defs><rect x="0" y="0" width="233" height="166" rx="12" fill="transparent" /><rect x="0" y="0" width="233" height="50" rx="8" fill="rgb(40, 40, 40)" /><rect x="20.81" y="16" width="18" height="18" rx="9" fill="rgb(80, 55, 52)" /><rect x="21.31" y="16.5" width="17" height="17" rx="8.5" fill="none" stroke="rgb(51, 51, 51)" stroke-width="1"/><rect x="10" y="16" width="18" height="18" rx="9" fill="rgb(245, 142, 130)" /><rect x="10.5" y="16.5" width="17" height="17" rx="8.5" fill="none" stroke="rgb(51, 51, 51)" stroke-width="1"/><g clip-path="url(#clip-1)"><text x="48.81" y="29.91" fill="rgb(218, 218, 218)" font-family="&quot;??&quot;, &quot;??&quot;, &quot;??&quot;, ui-sans-serif, -apple-system, &quot;system-ui&quot;, system-ui, &quot;Segoe UI&quot;, &quot;Google Sans Flex&quot;, Roboto, &quot;Inter Variable&quot;, Inter, &quot;Apple Color Emoji&quot;, &quot;Segoe UI Emoji&quot;, &quot;Segoe UI Symbol&quot;, sans-serif" font-size="14px" font-weight="400" font-style="normal" direction="ltr" unicode-bidi="embed" letter-spacing="0" textLength="34.15" lengthAdjust="spacing" xml:space="preserve">Coral</text></g><g xmlns="http://www.w3.org/2000/svg" fill="none" stroke="rgb(179, 179, 179)" stroke-width="1.75px" stroke-linecap="round" stroke-linejoin="round" fill-rule="nonzero" clip-rule="nonzero" opacity="1" transform="matrix(0.6666666666666666 0 0 0.6666666666666666 177 17)"><path d="M21.174 6.812a1 1 0 0 0-3.986-3.987L3.842 16.174a2 2 0 0 0-.5.83l-1.321 4.352a.5.5 0 0 0 .623.622l4.353-1.32a2 2 0 0 0 .83-.497z" fill="none" stroke="rgb(179, 179, 179)" stroke-width="1.75px" stroke-linecap="round" stroke-linejoin="round" fill-rule="nonzero" clip-rule="nonzero" opacity="1"/><path d="m15 5 4 4" fill="none" stroke="rgb(179, 179, 179)" stroke-width="1.75px" stroke-linecap="round" stroke-linejoin="round" fill-rule="nonzero" clip-rule="nonzero" opacity="1"/></g><g xmlns="http://www.w3.org/2000/svg" fill="none" stroke="rgb(179, 179, 179)" stroke-width="1.75px" stroke-linecap="round" stroke-linejoin="round" fill-rule="nonzero" clip-rule="nonzero" opacity="1" transform="matrix(0.6666666666666666 0 0 0.6666666666666666 203 17)"><path d="M10 11v6" fill="none" stroke="rgb(179, 179, 179)" stroke-width="1.75px" stroke-linecap="round" stroke-linejoin="round" fill-rule="nonzero" clip-rule="nonzero" opacity="1"/><path d="M14 11v6" fill="none" stroke="rgb(179, 179, 179)" stroke-width="1.75px" stroke-linecap="round" stroke-linejoin="round" fill-rule="nonzero" clip-rule="nonzero" opacity="1"/><path d="M19 6v14a2 2 0 0 1-2 2H7a2 2 0 0 1-2-2V6" fill="none" stroke="rgb(179, 179, 179)" stroke-width="1.75px" stroke-linecap="round" stroke-linejoin="round" fill-rule="nonzero" clip-rule="nonzero" opacity="1"/><path d="M3 6h18" fill="none" stroke="rgb(179, 179, 179)" stroke-width="1.75px" stroke-linecap="round" stroke-linejoin="round" fill-rule="nonzero" clip-rule="nonzero" opacity="1"/><path d="M8 6V4a2 2 0 0 1 2-2h4a2 2 0 0 1 2 2v2" fill="none" stroke="rgb(179, 179, 179)" stroke-width="1.75px" stroke-linecap="round" stroke-linejoin="round" fill-rule="nonzero" clip-rule="nonzero" opacity="1"/></g><rect x="0" y="58" width="233" height="50" rx="8" fill="rgb(40, 40, 40)" /><rect x="21.31" y="74.5" width="17" height="17" rx="8.5" fill="none" stroke="rgb(51, 51, 51)" stroke-width="1"/><g clip-path="url(#clip-2)"><g xmlns="http://www.w3.org/2000/svg" aria-hidden="true" fill="rgb(0, 0, 0)" stroke="none" stroke-width="1px" stroke-linecap="butt" stroke-linejoin="miter" fill-rule="nonzero" clip-rule="nonzero" opacity="1" transform="matrix(1 0 0 1 21.8125 75)"><rect x="0" y="0" width="4.5" height="4.5" fill="rgb(28, 28, 28)" stroke="none" stroke-width="1px" stroke-linecap="butt" stroke-linejoin="miter" fill-rule="nonzero" clip-rule="nonzero" opacity="1"/><rect x="4.5" y="0" width="4.5" height="4.5" fill="rgba(69.8, 69.8, 69.8, 1)" stroke="none" stroke-width="1px" stroke-linecap="butt" stroke-linejoin="miter" fill-rule="nonzero" clip-rule="nonzero" opacity="1"/><rect x="9" y="0" width="4.5" height="4.5" fill="rgb(28, 28, 28)" stroke="none" stroke-width="1px" stroke-linecap="butt" stroke-linejoin="miter" fill-rule="nonzero" clip-rule="nonzero" opacity="1"/><rect x="13.5" y="0" width="4.5" height="4.5" fill="rgba(69.8, 69.8, 69.8, 1)" stroke="none" stroke-width="1px" stroke-linecap="butt" stroke-linejoin="miter" fill-rule="nonzero" clip-rule="nonzero" opacity="1"/><rect x="0" y="4.5" width="4.5" height="4.5" fill="rgba(69.8, 69.8, 69.8, 1)" stroke="none" stroke-width="1px" stroke-linecap="butt" stroke-linejoin="miter" fill-rule="nonzero" clip-rule="nonzero" opacity="1"/><rect x="4.5" y="4.5" width="4.5" height="4.5" fill="rgb(28, 28, 28)" stroke="none" stroke-width="1px" stroke-linecap="butt" stroke-linejoin="miter" fill-rule="nonzero" clip-rule="nonzero" opacity="1"/><rect x="9" y="4.5" width="4.5" height="4.5" fill="rgba(69.8, 69.8, 69.8, 1)" stroke="none" stroke-width="1px" stroke-linecap="butt" stroke-linejoin="miter" fill-rule="nonzero" clip-rule="nonzero" opacity="1"/><rect x="13.5" y="4.5" width="4.5" height="4.5" fill="rgb(28, 28, 28)" stroke="none" stroke-width="1px" stroke-linecap="butt" stroke-linejoin="miter" fill-rule="nonzero" clip-rule="nonzero" opacity="1"/><rect x="0" y="9" width="4.5" height="4.5" fill="rgb(28, 28, 28)" stroke="none" stroke-width="1px" stroke-linecap="butt" stroke-linejoin="miter" fill-rule="nonzero" clip-rule="nonzero" opacity="1"/><rect x="4.5" y="9" width="4.5" height="4.5" fill="rgba(69.8, 69.8, 69.8, 1)" stroke="none" stroke-width="1px" stroke-linecap="butt" stroke-linejoin="miter" fill-rule="nonzero" clip-rule="nonzero" opacity="1"/><rect x="9" y="9" width="4.5" height="4.5" fill="rgb(28, 28, 28)" stroke="none" stroke-width="1px" stroke-linecap="butt" stroke-linejoin="miter" fill-rule="nonzero" clip-rule="nonzero" opacity="1"/><rect x="13.5" y="9" width="4.5" height="4.5" fill="rgba(69.8, 69.8, 69.8, 1)" stroke="none" stroke-width="1px" stroke-linecap="butt" stroke-linejoin="miter" fill-rule="nonzero" clip-rule="nonzero" opacity="1"/><rect x="0" y="13.5" width="4.5" height="4.5" fill="rgba(69.8, 69.8, 69.8, 1)" stroke="none" stroke-width="1px" stroke-linecap="butt" stroke-linejoin="miter" fill-rule="nonzero" clip-rule="nonzero" opacity="1"/><rect x="4.5" y="13.5" width="4.5" height="4.5" fill="rgb(28, 28, 28)" stroke="none" stroke-width="1px" stroke-linecap="butt" stroke-linejoin="miter" fill-rule="nonzero" clip-rule="nonzero" opacity="1"/><rect x="9" y="13.5" width="4.5" height="4.5" fill="rgba(69.8, 69.8, 69.8, 1)" stroke="none" stroke-width="1px" stroke-linecap="butt" stroke-linejoin="miter" fill-rule="nonzero" clip-rule="nonzero" opacity="1"/><rect x="13.5" y="13.5" width="4.5" height="4.5" fill="rgb(28, 28, 28)" stroke="none" stroke-width="1px" stroke-linecap="butt" stroke-linejoin="miter" fill-rule="nonzero" clip-rule="nonzero" opacity="1"/></g></g><rect x="10" y="74" width="18" height="18" rx="9" fill="rgb(122, 219, 183)" /><rect x="10.5" y="74.5" width="17" height="17" rx="8.5" fill="none" stroke="rgb(51, 51, 51)" stroke-width="1"/><g clip-path="url(#clip-3)"><text x="48.81" y="87.91" fill="rgb(218, 218, 218)" font-family="&quot;??&quot;, &quot;??&quot;, &quot;??&quot;, ui-sans-serif, -apple-system, &quot;system-ui&quot;, system-ui, &quot;Segoe UI&quot;, &quot;Google Sans Flex&quot;, Roboto, &quot;Inter Variable&quot;, Inter, &quot;Apple Color Emoji&quot;, &quot;Segoe UI Emoji&quot;, &quot;Segoe UI Symbol&quot;, sans-serif" font-size="14px" font-weight="400" font-style="normal" direction="ltr" unicode-bidi="embed" letter-spacing="0" textLength="65.71" lengthAdjust="spacing" xml:space="preserve">Mint glass</text></g><g xmlns="http://www.w3.org/2000/svg" fill="none" stroke="rgb(179, 179, 179)" stroke-width="1.75px" stroke-linecap="round" stroke-linejoin="round" fill-rule="nonzero" clip-rule="nonzero" opacity="1" transform="matrix(0.6666666666666666 0 0 0.6666666666666666 177 75)"><path d="M21.174 6.812a1 1 0 0 0-3.986-3.987L3.842 16.174a2 2 0 0 0-.5.83l-1.321 4.352a.5.5 0 0 0 .623.622l4.353-1.32a2 2 0 0 0 .83-.497z" fill="none" stroke="rgb(179, 179, 179)" stroke-width="1.75px" stroke-linecap="round" stroke-linejoin="round" fill-rule="nonzero" clip-rule="nonzero" opacity="1"/><path d="m15 5 4 4" fill="none" stroke="rgb(179, 179, 179)" stroke-width="1.75px" stroke-linecap="round" stroke-linejoin="round" fill-rule="nonzero" clip-rule="nonzero" opacity="1"/></g><g xmlns="http://www.w3.org/2000/svg" fill="none" stroke="rgb(179, 179, 179)" stroke-width="1.75px" stroke-linecap="round" stroke-linejoin="round" fill-rule="nonzero" clip-rule="nonzero" opacity="1" transform="matrix(0.6666666666666666 0 0 0.6666666666666666 203 75)"><path d="M10 11v6" fill="none" stroke="rgb(179, 179, 179)" stroke-width="1.75px" stroke-linecap="round" stroke-linejoin="round" fill-rule="nonzero" clip-rule="nonzero" opacity="1"/><path d="M14 11v6" fill="none" stroke="rgb(179, 179, 179)" stroke-width="1.75px" stroke-linecap="round" stroke-linejoin="round" fill-rule="nonzero" clip-rule="nonzero" opacity="1"/><path d="M19 6v14a2 2 0 0 1-2 2H7a2 2 0 0 1-2-2V6" fill="none" stroke="rgb(179, 179, 179)" stroke-width="1.75px" stroke-linecap="round" stroke-linejoin="round" fill-rule="nonzero" clip-rule="nonzero" opacity="1"/><path d="M3 6h18" fill="none" stroke="rgb(179, 179, 179)" stroke-width="1.75px" stroke-linecap="round" stroke-linejoin="round" fill-rule="nonzero" clip-rule="nonzero" opacity="1"/><path d="M8 6V4a2 2 0 0 1 2-2h4a2 2 0 0 1 2 2v2" fill="none" stroke="rgb(179, 179, 179)" stroke-width="1.75px" stroke-linecap="round" stroke-linejoin="round" fill-rule="nonzero" clip-rule="nonzero" opacity="1"/></g><rect x="0" y="116" width="233" height="50" rx="8" fill="rgb(40, 40, 40)" /><rect x="31.63" y="132" width="18" height="18" rx="9" fill="rgb(67, 99, 153)" /><rect x="32.13" y="132.5" width="17" height="17" rx="8.5" fill="none" stroke="rgb(51, 51, 51)" stroke-width="1"/><rect x="20.81" y="132" width="18" height="18" rx="9" fill="rgb(115, 87, 153)" /><rect x="21.31" y="132.5" width="17" height="17" rx="8.5" fill="none" stroke="rgb(51, 51, 51)" stroke-width="1"/><rect x="10" y="132" width="18" height="18" rx="9" fill="rgb(207, 172, 255)" /><rect x="10.5" y="132.5" width="17" height="17" rx="8.5" fill="none" stroke="rgb(51, 51, 51)" stroke-width="1"/><g clip-path="url(#clip-4)"><text x="59.63" y="145.91" fill="rgb(218, 218, 218)" font-family="&quot;??&quot;, &quot;??&quot;, &quot;??&quot;, ui-sans-serif, -apple-system, &quot;system-ui&quot;, system-ui, &quot;Segoe UI&quot;, &quot;Google Sans Flex&quot;, Roboto, &quot;Inter Variable&quot;, Inter, &quot;Apple Color Emoji&quot;, &quot;Segoe UI Emoji&quot;, &quot;Segoe UI Symbol&quot;, sans-serif" font-size="14px" font-weight="400" font-style="normal" direction="ltr" unicode-bidi="embed" letter-spacing="0" textLength="49.94" lengthAdjust="spacing" xml:space="preserve">Twilight</text></g><g xmlns="http://www.w3.org/2000/svg" fill="none" stroke="rgb(179, 179, 179)" stroke-width="1.75px" stroke-linecap="round" stroke-linejoin="round" fill-rule="nonzero" clip-rule="nonzero" opacity="1" transform="matrix(0.6666666666666666 0 0 0.6666666666666666 177 133)"><path d="M21.174 6.812a1 1 0 0 0-3.986-3.987L3.842 16.174a2 2 0 0 0-.5.83l-1.321 4.352a.5.5 0 0 0 .623.622l4.353-1.32a2 2 0 0 0 .83-.497z" fill="none" stroke="rgb(179, 179, 179)" stroke-width="1.75px" stroke-linecap="round" stroke-linejoin="round" fill-rule="nonzero" clip-rule="nonzero" opacity="1"/><path d="m15 5 4 4" fill="none" stroke="rgb(179, 179, 179)" stroke-width="1.75px" stroke-linecap="round" stroke-linejoin="round" fill-rule="nonzero" clip-rule="nonzero" opacity="1"/></g><g xmlns="http://www.w3.org/2000/svg" fill="none" stroke="rgb(179, 179, 179)" stroke-width="1.75px" stroke-linecap="round" stroke-linejoin="round" fill-rule="nonzero" clip-rule="nonzero" opacity="1" transform="matrix(0.6666666666666666 0 0 0.6666666666666666 203 133)"><path d="M10 11v6" fill="none" stroke="rgb(179, 179, 179)" stroke-width="1.75px" stroke-linecap="round" stroke-linejoin="round" fill-rule="nonzero" clip-rule="nonzero" opacity="1"/><path d="M14 11v6" fill="none" stroke="rgb(179, 179, 179)" stroke-width="1.75px" stroke-linecap="round" stroke-linejoin="round" fill-rule="nonzero" clip-rule="nonzero" opacity="1"/><path d="M19 6v14a2 2 0 0 1-2 2H7a2 2 0 0 1-2-2V6" fill="none" stroke="rgb(179, 179, 179)" stroke-width="1.75px" stroke-linecap="round" stroke-linejoin="round" fill-rule="nonzero" clip-rule="nonzero" opacity="1"/><path d="M3 6h18" fill="none" stroke="rgb(179, 179, 179)" stroke-width="1.75px" stroke-linecap="round" stroke-linejoin="round" fill-rule="nonzero" clip-rule="nonzero" opacity="1"/><path d="M8 6V4a2 2 0 0 1 2-2h4a2 2 0 0 1 2 2v2" fill="none" stroke="rgb(179, 179, 179)" stroke-width="1.75px" stroke-linecap="round" stroke-linejoin="round" fill-rule="nonzero" clip-rule="nonzero" opacity="1"/></g></svg>
